<?xml version="1.0" standalone="no"?>
<!DOCTYPE svg PUBLIC "-//W3C//DTD SVG 20010904//EN"
 "http://www.w3.org/TR/2001/REC-SVG-20010904/DTD/svg10.dtd">
<svg version="1.0" xmlns="http://www.w3.org/2000/svg"
 width="512.000000pt" height="512.000000pt" viewBox="0 0 512.000000 512.000000"
 preserveAspectRatio="xMidYMid meet">

<g transform="translate(0.000000,512.000000) scale(0.100000,-0.100000)"
fill="#000000" stroke="none">
<path d="M2365 5114 c-108 -9 -326 -46 -435 -73 -172 -44 -335 -105 -509 -192
-503 -249 -900 -646 -1150 -1150 -126 -252 -198 -480 -243 -764 -32 -201 -32
-549 0 -750 45 -284 117 -512 243 -764 249 -503 646 -900 1150 -1150 252 -126
480 -198 764 -243 201 -32 549 -32 750 0 284 45 512 117 764 243 504 250 901
647 1150 1150 126 252 198 480 243 764 32 201 32 549 0 750 -45 284 -117 512
-243 764 -249 503 -646 900 -1150 1150 -357 178 -685 258 -1084 265 -110 2
-222 2 -250 0z m615 -2095 l0 -261 45 47 c25 25 71 58 103 73 51 24 69 27 167
27 103 0 114 -2 177 -32 160 -76 252 -234 265 -458 14 -248 -81 -457 -245
-537 -65 -32 -70 -33 -193 -33 -124 0 -127 0 -195 35 -45 23 -79 49 -101 78
l-32 42 -3 -67 -3 -68 -102 -3 -103 -3 -2 702 -3 702 -376 -694 -375 -694
-817 -3 c-449 -1 -817 0 -817 2 0 4 651 1208 726 1344 l35 62 924 0 925 0 0
-261z m1483 -124 c82 -21 133 -50 189 -106 54 -54 92 -129 103 -203 l7 -47
-107 3 -107 3 -19 49 c-35 94 -101 138 -209 138 -176 0 -270 -124 -270 -357 0
-225 95 -358 255 -357 72 0 101 10 149 53 42 36 71 87 81 142 l7 37 110 0 110
0 -7 -37 c-20 -111 -80 -221 -149 -277 -93 -76 -184 -101 -334 -94 -88 4 -109
9 -174 40 -172 82 -267 253 -268 481 0 271 130 474 341 531 71 19 220 20 292
1z"/>
<path d="M3193 2729 c-120 -23 -190 -112 -215 -273 -9 -59 -9 -93 0 -153 30
-190 121 -286 274 -286 91 0 159 38 206 114 47 78 57 120 57 249 0 108 -2 119
-31 180 -17 36 -43 79 -58 97 -49 58 -147 89 -233 72z"/>
</g>
</svg>
