<?xml version="1.0" encoding="UTF-8"?>
<svg version="1.1" xmlns="http://www.w3.org/2000/svg" width="250" height="250">
<path d="M0 0 C82.5 0 165 0 250 0 C250 82.5 250 165 250 250 C167.5 250 85 250 0 250 C0 167.5 0 85 0 0 Z " fill="#FDFDFD" transform="translate(0,0)"/>
<path d="M0 0 C3.84694661 2.18294478 7.37966377 4.54351989 10.6640625 7.51171875 C7.23653684 13.93832935 3.01059266 19.67766249 -1.3359375 25.51171875 C-1.97660156 25.17398438 -2.61726563 24.83625 -3.27734375 24.48828125 C-4.14230469 24.04226562 -5.00726563 23.59625 -5.8984375 23.13671875 C-6.74535156 22.69585937 -7.59226563 22.255 -8.46484375 21.80078125 C-14.43856927 19.1187004 -19.67808527 18.25306887 -26.2109375 18.32421875 C-28.18707031 18.33388672 -28.18707031 18.33388672 -30.203125 18.34375 C-33.20156592 18.15460224 -33.20156592 18.15460224 -34.3359375 19.51171875 C-34.40741949 20.86415792 -34.41993204 22.22006242 -34.3984375 23.57421875 C-34.3778125 24.87359375 -34.3571875 26.17296875 -34.3359375 27.51171875 C-29.51373438 29.01371644 -24.69646948 30.43698438 -19.79296875 31.6484375 C4.2097396 37.6018934 4.2097396 37.6018934 11.6640625 48.51171875 C14.71400135 54.47899042 14.66213088 61.87957298 12.90625 68.26953125 C9.4174358 77.47230886 4.46848575 82.20942381 -4.3359375 86.51171875 C-10.93938069 89.31180892 -16.95021137 90.02771548 -24.0859375 89.94921875 C-25.0538623 89.94164551 -26.02178711 89.93407227 -27.01904297 89.92626953 C-39.54776016 89.63909632 -49.41466209 85.41511087 -60.3359375 79.51171875 C-58.93317524 76.37120623 -57.23977887 74.14421982 -54.8984375 71.63671875 C-51.994207 68.40576232 -50.03007556 65.49792594 -48.3359375 61.51171875 C-44.94256813 62.20149243 -42.18537324 63.55480263 -39.0859375 65.07421875 C-33.83610969 67.31397266 -29.39853661 67.97411422 -23.7734375 67.94921875 C-23.08282227 67.94672119 -22.39220703 67.94422363 -21.68066406 67.94165039 C-18.05798977 67.83365132 -16.42150068 67.56876087 -13.3359375 65.51171875 C-13.0857218 62.42806004 -13.0857218 62.42806004 -13.3359375 59.51171875 C-19.11898498 56.13827439 -24.94079252 54.44289321 -31.43554688 52.99511719 C-36.01379932 51.95012995 -40.06460618 50.4724209 -44.3359375 48.51171875 C-44.35011719 47.7125 -44.36429688 46.91328125 -44.37890625 46.08984375 C-44.9181185 33.67338865 -48.45028006 24.84152687 -56.859375 15.66796875 C-58.3359375 13.51171875 -58.3359375 13.51171875 -58.18359375 11.41015625 C-55.03665699 4.36217806 -48.93278183 0.94431402 -42.3359375 -2.48828125 C-30.21626329 -6.52817265 -11.64155966 -5.14291686 0 0 Z " fill="#20211C" transform="translate(213.3359375,65.48828125)"/>
<path d="M0 0 C3.1875 2.25 3.1875 2.25 5 4 C5 4.66 5 5.32 5 6 C3.49609375 7.15625 3.49609375 7.15625 1.4375 8.5 C-3.62942088 12.1308417 -6.70143003 16.78413623 -10 22 C-13.04817905 20.83928688 -15.77691721 19.55756679 -18.5625 17.875 C-23.85885817 15.20169587 -29.20133127 15.20554962 -35 16 C-41.16437839 18.85387888 -45.82524454 24.11650933 -48.375 30.375 C-49.85160163 38.93928947 -49.35273537 47.154205 -44.93359375 54.859375 C-42.05041687 58.70361084 -38.52293311 60.67483439 -34 62 C-31.25193726 62.28811425 -28.62448204 62.15839411 -25.875 61.9375 C-25.18535156 61.90978516 -24.49570313 61.88207031 -23.78515625 61.85351562 C-18.95154756 61.52542173 -16.53497999 60.2177382 -13 57 C-12.34 57 -11.68 57 -11 57 C-10.5978125 57.81791016 -10.5978125 57.81791016 -10.1875 58.65234375 C-6.92537594 64.92978643 -2.86804361 69.89036613 2 75 C-6.46272093 83.94630499 -16.06169097 85.9841851 -28.09204102 86.4597168 C-40.87562631 86.66816542 -50.17362543 83.26260744 -60 75 C-60.81339844 74.41347656 -61.62679687 73.82695312 -62.46484375 73.22265625 C-65.39721923 70.65174462 -67.24940514 67.86720967 -69.125 64.5 C-69.47046875 63.88125 -69.8159375 63.2625 -70.171875 62.625 C-76.43344744 50.96222386 -78.2797669 37.61453584 -74.4375 24.8125 C-71.36936795 16.67433415 -66.76598929 8.60610541 -60 3 C-59.34 3 -58.68 3 -58 3 C-58 2.34 -58 1.68 -58 1 C-55.41909233 -0.31746333 -52.83549542 -1.62909617 -50.25 -2.9375 C-49.52039063 -3.31068359 -48.79078125 -3.68386719 -48.0390625 -4.06835938 C-47.33007812 -4.42607422 -46.62109375 -4.78378906 -45.890625 -5.15234375 C-45.24125977 -5.48226318 -44.59189453 -5.81218262 -43.92285156 -6.15209961 C-29.9280737 -12.32323515 -12.22735048 -7.55731646 0 0 Z " fill="#21221D" transform="translate(98,69)"/>
<path d="M0 0 C3.03011649 1.80316768 5.16257221 3.67531898 7.3828125 6.41796875 C7.88296875 6.96582031 8.383125 7.51367188 8.8984375 8.078125 C16.48339637 16.45471792 17.97782791 24.50893835 17.71875 35.625 C16.90498764 44.81294477 11.26743797 52.50396261 4.3828125 58.41796875 C-4.84750736 64.12398466 -13.65222499 66.92037499 -24.43359375 64.88671875 C-32.54632015 62.85577772 -37.90431718 59.58185515 -43.6171875 53.41796875 C-44.2978125 52.69609375 -44.9784375 51.97421875 -45.6796875 51.23046875 C-51.93103723 42.15592882 -53.29361514 32.20272902 -51.6171875 21.41796875 C-48.40624902 11.20650363 -42.33333541 4.33331677 -33.2421875 -1.01953125 C-22.54907288 -6.00429145 -10.48835179 -5.10128282 0 0 Z " fill="#1F201A" transform="translate(143.6171875,79.58203125)"/>
<path d="M0 0 C3.03011649 1.80316768 5.16257221 3.67531898 7.3828125 6.41796875 C7.88296875 6.96582031 8.383125 7.51367188 8.8984375 8.078125 C16.48339637 16.45471792 17.97782791 24.50893835 17.71875 35.625 C16.90498764 44.81294477 11.26743797 52.50396261 4.3828125 58.41796875 C-4.84750736 64.12398466 -13.65222499 66.92037499 -24.43359375 64.88671875 C-32.54632015 62.85577772 -37.90431718 59.58185515 -43.6171875 53.41796875 C-44.2978125 52.69609375 -44.9784375 51.97421875 -45.6796875 51.23046875 C-51.93103723 42.15592882 -53.29361514 32.20272902 -51.6171875 21.41796875 C-48.40624902 11.20650363 -42.33333541 4.33331677 -33.2421875 -1.01953125 C-22.54907288 -6.00429145 -10.48835179 -5.10128282 0 0 Z M-40.6171875 11.41796875 C-46.96174971 20.10260326 -47.91859504 28.88485377 -46.6171875 39.41796875 C-44.04907034 47.74964656 -38.80892741 52.81158059 -31.6171875 57.41796875 C-30.2559375 58.37703125 -30.2559375 58.37703125 -28.8671875 59.35546875 C-20.50396032 62.08960071 -10.54377826 61.19771529 -2.6171875 57.41796875 C4.57605296 53.01709534 8.93280044 46.4071385 11.3828125 38.41796875 C12.6857741 30.71061964 12.74671003 22.75647639 8.8828125 15.79296875 C3.96581929 9.01767528 -2.16173564 3.00958322 -10.6171875 1.41796875 C-22.28144904 0.2200985 -32.58750491 2.44842509 -40.6171875 11.41796875 Z " fill="#2D2E2B" transform="translate(143.6171875,79.58203125)"/>
<path d="M0 0 C5.89820749 4.13195661 10.88557507 8.98088164 13 16 C14.40565074 26.80526939 13.57449392 35.91090264 7 45 C1.18976912 51.939998 -5.37798001 54.39128981 -14.2109375 55.34765625 C-21.85250993 55.69500045 -26.834406 54.49887855 -33 50 C-34.5778125 48.948125 -34.5778125 48.948125 -36.1875 47.875 C-41.49163706 43.03144627 -44.87760745 36.966076 -45.515625 29.78515625 C-45.84495334 22.2847034 -45.73902201 15.15629962 -41 9 C-40.57589844 8.39027344 -40.15179688 7.78054687 -39.71484375 7.15234375 C-30.51865692 -4.91284844 -12.84670788 -8.23944452 0 0 Z M-36 10 C-40.19521046 15.85555055 -41.46815466 20.86064137 -41 28 C-38.74475653 37.51845406 -34.27364008 43.78437884 -26 49 C-19.13058609 51.28980464 -11.24015752 51.0195059 -4.625 48.0625 C1.52468233 44.53694922 5.35971571 39.35188529 8.4375 33.0625 C9.91085274 25.04091284 9.67291417 17.92237551 5 11 C0.07687607 5.6635541 -4.65181133 1.42381079 -12.0859375 0.69921875 C-22.31175166 0.66278473 -28.85035345 2.37134488 -36 10 Z " fill="#E9E9E7" transform="translate(142,85)"/>
<path d="M0 0 C3.25 2.125 3.25 2.125 4.25 4.125 C2.93 4.125 1.61 4.125 0.25 4.125 C0.30220703 5.04732422 0.30220703 5.04732422 0.35546875 5.98828125 C0.38253906 6.79652344 0.40960938 7.60476562 0.4375 8.4375 C0.48970703 9.63826172 0.48970703 9.63826172 0.54296875 10.86328125 C0.25 13.125 0.25 13.125 -1.13671875 14.91796875 C-2.75 16.125 -2.75 16.125 -4.75 16.125 C-4.399375 16.640625 -4.04875 17.15625 -3.6875 17.6875 C-2.32705976 21.22464462 -2.7778444 23.49561908 -3.75 27.125 C-6.56276288 30.35140449 -8.1130086 31.04812173 -12.375 31.5625 C-15.75 31.125 -15.75 31.125 -17.6875 29.75 C-18.75 28.125 -18.75 28.125 -18.75 26.125 C-19.41 26.125 -20.07 26.125 -20.75 26.125 C-20.91802051 24.66682203 -21.08437143 23.2084516 -21.25 21.75 C-21.3428125 20.93789062 -21.435625 20.12578125 -21.53125 19.2890625 C-21.75 17.125 -21.75 17.125 -21.75 15.125 C-22.22462289 11.42294148 -22.84352516 9.52600096 -25.75 7.125 C-24.43 6.135 -23.11 5.145 -21.75 4.125 C-22.74 3.135 -23.73 2.145 -24.75 1.125 C-17.23294598 -3.07056504 -7.87133223 -3.78674902 0 0 Z " fill="#22231D" transform="translate(137.75,87.875)"/>
<path d="M0 0 C0.07476562 0.88300781 0.14953125 1.76601562 0.2265625 2.67578125 C1.24353281 11.95812787 3.05370563 20.19165009 9.9609375 26.90625 C11.90919698 28.42902752 13.88018517 29.73070151 16 31 C16.886875 31.61875 17.77375 32.2375 18.6875 32.875 C26.3493327 35.47713186 35.09948635 34.68934472 42.70703125 32.1328125 C46.12897361 30.44224472 48.70770761 28.09667464 51.40625 25.42578125 C53 24 53 24 55 24 C55.05654578 26.82728924 55.03353949 28.42648667 54 31 C47.86615474 37.05020191 39.05370168 40.01174004 30.5625 40.375 C19.66753963 39.95001928 11.37444721 35.95664041 4 28 C3.319375 27.278125 2.63875 26.55625 1.9375 25.8125 C-2.7647022 18.98672262 -4.44529873 12.49030342 -4.43359375 4.25 C-4.29050781 3.5075 -4.14742188 2.765 -4 2 C-1 0 -1 0 0 0 Z " fill="#252523" transform="translate(96,105)"/>
<path d="M0 0 C0.66 0.33 1.32 0.66 2 1 C1.53854868 3.88407076 0.47131255 6.0211582 -1 8.5 C-4.17049758 13.92201036 -4.95503385 18.96919537 -3.46875 25.2421875 C-0.98412442 33.26320702 2.68269294 38.77293422 10 43 C14.60058011 44.95769367 19.06650161 45.4896381 24 46 C24 46.99 24 47.98 24 49 C14.07946818 49.36592126 6.91887966 48.76086595 -0.87890625 42.15234375 C-7.23969581 35.6978409 -9.55157157 29.22535852 -9.625 20.3125 C-9.48871232 13.9480044 -8.77793015 9.20741723 -5 4 C-2.25 1.5 -2.25 1.5 0 0 Z " fill="#EBEBE9" transform="translate(106,90)"/>
<path d="M0 0 C1.134375 0.020625 2.26875 0.04125 3.4375 0.0625 C3.4375 1.0525 3.4375 2.0425 3.4375 3.0625 C3.994375 2.7325 4.55125 2.4025 5.125 2.0625 C7.80534892 0.9034302 9.54346033 0.76567542 12.4375 1.0625 C13.4275 1.7225 14.4175 2.3825 15.4375 3.0625 C15.32340407 4.52172693 15.19584456 5.97990598 15.0625 7.4375 C14.99289063 8.24960938 14.92328125 9.06171875 14.8515625 9.8984375 C14.4375 12.0625 14.4375 12.0625 12.4375 14.0625 C8.32123998 14.72641291 4.60901171 15.0625 0.4375 15.0625 C0.4375 14.4025 0.4375 13.7425 0.4375 13.0625 C-1.2125 12.7325 -2.8625 12.4025 -4.5625 12.0625 C-4.58937279 10.25007948 -4.60883715 8.43754767 -4.625 6.625 C-4.63660156 5.61566406 -4.64820312 4.60632813 -4.66015625 3.56640625 C-4.50618986 -0.38129207 -4.09874205 0.07190776 0 0 Z " fill="#F4F4F2" transform="translate(71.5625,167.9375)"/>
<path d="M0 0 C0.59941406 0.17402344 1.19882813 0.34804687 1.81640625 0.52734375 C4.30411013 1.06582706 6.2368803 0.68234284 8.71875 0.2578125 C13.77941886 -0.31411241 18.91433902 -0.06882849 24 0 C24.99 1.98 25.98 3.96 27 6 C27.33 4.35 27.66 2.7 28 1 C28.66 1 29.32 1 30 1 C30 4.3 30 7.6 30 11 C26 9 26 9 24 6 C23.67 7.65 23.34 9.3 23 11 C22.01 11 21.02 11 20 11 C19.67 8.36 19.34 5.72 19 3 C17.35 3 15.7 3 14 3 C14 3.66 14 4.32 14 5 C15.65 5 17.3 5 19 5 C19 5.66 19 6.32 19 7 C17.35 7 15.7 7 14 7 C14 7.66 14 8.32 14 9 C15.65 9 17.3 9 19 9 C19 9.66 19 10.32 19 11 C15.66666667 11 12.33333333 11 9 11 C7.845 11.04125 6.69 11.0825 5.5 11.125 C2 11 2 11 0 9 C-0.1953125 6.8359375 -0.1953125 6.8359375 -0.125 4.375 C-0.10695313 3.55773437 -0.08890625 2.74046875 -0.0703125 1.8984375 C-0.04710938 1.27195313 -0.02390625 0.64546875 0 0 Z " fill="#D7D7D5" transform="translate(89,168)"/>
<path d="M0 0 C3.79075032 2.06019039 4.78313252 3.29836992 6.0625 7.4375 C5.98713481 11.73331579 5.03450339 13.05219671 2 16 C-1.12860495 17.56430248 -3.55602925 17.35627284 -7 17 C-9.57687323 14.88564247 -10.74473348 13.32896485 -11.37890625 10.02734375 C-11.57547799 6.63489591 -11.24074916 4.38519866 -9.4375 1.5 C-6.03618625 -0.59311615 -3.92927257 -0.55147685 0 0 Z " fill="#F1F1F0" transform="translate(129,102)"/>
<path d="M0 0 C0.66 0 1.32 0 2 0 C6.47081512 8.35848043 6.85219151 16.67376932 6 26 C4.02988452 32.26186082 0.40631127 37.2160049 -4 42 C-4.66 41.67 -5.32 41.34 -6 41 C-5.34 39.35 -4.68 37.7 -4 36 C-4.66 35.67 -5.32 35.34 -6 35 C-5.45859375 34.26523438 -5.45859375 34.26523438 -4.90625 33.515625 C0.59186366 24.65755299 -0.5252755 15.03494559 -1 5 C-0.34 5 0.32 5 1 5 C0.67 3.35 0.34 1.7 0 0 Z " fill="#1E1E1B" transform="translate(155,93)"/>
<path d="M0 0 C0.495 0.99 0.495 0.99 1 2 C2.32 1.67 3.64 1.34 5 1 C2.67041284 9.82790922 -1.35498412 16.98816366 -9.171875 22.03515625 C-16.12078437 25.70263619 -24.32590895 25.73914758 -32 25 C-32.66 24.34 -33.32 23.68 -34 23 C-30.04 23 -26.08 23 -22 23 C-22 22.67 -22 22.34 -22 22 C-23.98 21.67 -25.96 21.34 -28 21 C-28 20.67 -28 20.34 -28 20 C-27.39414063 19.98582031 -26.78828125 19.97164062 -26.1640625 19.95703125 C-18.49301547 19.52037165 -11.66715237 17.68230589 -6.109375 12.1015625 C-3.13113098 8.32815625 -1.17718014 4.70872058 0 0 Z " fill="#E8E8E5" transform="translate(150,115)"/>
<path d="M0 0 C1.54652237 2.31978355 3.069056 4.64615393 4.5625 7 C4.99691406 7.680625 5.43132812 8.36125 5.87890625 9.0625 C7 11 7 11 8 14 C9.32407669 14.68486725 10.65909241 15.34870203 12 16 C13.37086915 17.29470975 14.71340837 18.62150897 16 20 C14.35 20.33 12.7 20.66 11 21 C10.67 21.99 10.34 22.98 10 24 C7.9375 24.6875 7.9375 24.6875 6 25 C5.75636719 24.44183594 5.51273438 23.88367188 5.26171875 23.30859375 C3.24784732 19.62377018 0.35129078 16.67300374 -2.41796875 13.53515625 C-4 11 -4 11 -3.8359375 8.390625 C-2.80618802 5.44573396 -1.47017644 2.74859074 0 0 Z " fill="#EFF0ED" transform="translate(93,121)"/>
<path d="M0 0 C2.56475289 0.15388517 4.66389804 0.54943653 7.125 1.1875 C7.455 0.8575 7.785 0.5275 8.125 0.1875 C11.0625 0 11.0625 0 14.125 0.1875 C16.125 2.1875 16.125 2.1875 16.375 4.625 C16.125 7.1875 16.125 7.1875 14.125 10.1875 C10.07054358 10.61882515 8.57529042 10.48769361 5.125 8.1875 C4.135 8.8475 3.145 9.5075 2.125 10.1875 C-1.5625 9.8125 -1.5625 9.8125 -4.875 9.1875 C-5 5.8125 -5 5.8125 -4.875 2.1875 C-2.875 0.1875 -2.875 0.1875 0 0 Z " fill="#ECECEB" transform="translate(27.875,168.8125)"/>
<path d="M0 0 C11.47245737 -0.64052181 19.79440516 -0.39616943 28.875 7.5 C29.57625 8.325 30.2775 9.15 31 10 C32.1446875 11.2065625 32.1446875 11.2065625 33.3125 12.4375 C35.34702464 15.52696335 35.33750657 17.37180432 35 21 C34.01 21.33 33.02 21.66 32 22 C31.63648438 21.40832031 31.27296875 20.81664063 30.8984375 20.20703125 C25.12270358 11.12876229 19.29260505 7.01732618 9 4 C7.845 3.814375 6.69 3.62875 5.5 3.4375 C2.60306839 2.93053697 1.92721186 2.11208974 0 0 Z " fill="#232321" transform="translate(121,77)"/>
<path d="M0 0 C5.66666667 0 11.33333333 0 17 0 C17 0.66 17 1.32 17 2 C15.35 2 13.7 2 12 2 C12 2.66 12 3.32 12 4 C13.32 4 14.64 4 16 4 C16 4.66 16 5.32 16 6 C14.68 6 13.36 6 12 6 C12 6.66 12 7.32 12 8 C13.65 8 15.3 8 17 8 C17 8.66 17 9.32 17 10 C14.98177083 9.96744792 12.96354167 9.93489583 10.9453125 9.90234375 C8.91814596 9.87350758 8.91814596 9.87350758 7 11 C0.48837209 9.48837209 0.48837209 9.48837209 -2 7 C-1.6730244 4.38419521 -1.17960932 2.35921863 0 0 Z " fill="#E5E5E5" transform="translate(123,169)"/>
<path d="M0 0 C4.54075781 4.14010271 7.71842138 8.82390176 11 14 C10.34 15.32 9.68 16.64 9 18 C8.34 18 7.68 18 7 18 C6.67 18.66 6.34 19.32 6 20 C5.34 20 4.68 20 4 20 C2.5625 17.91796875 2.5625 17.91796875 1 15.1875 C-0.60978272 12.39855144 -2.21271876 9.68092187 -4 7 C-3.34 6.67 -2.68 6.34 -2 6 C-1.62690101 4.34178227 -1.29299023 2.67422986 -1 1 C-0.67 0.67 -0.34 0.34 0 0 Z " fill="#EFEFEE" transform="translate(155,79)"/>
<path d="M0 0 C0.66 0 1.32 0 2 0 C7.78631231 7.62553301 7.54448231 14.81639833 7 24 C5.68 24.33 4.36 24.66 3 25 C2.96261719 24.21496094 2.92523438 23.42992188 2.88671875 22.62109375 C2.53914664 15.64528893 2.53914664 15.64528893 0.4375 9.0625 C-0.99037458 6.02050633 -1.38838341 4.30125895 -1 1 C-0.67 0.67 -0.34 0.34 0 0 Z " fill="#E9E9E7" transform="translate(148,92)"/>
<path d="M0 0 C4.52999179 0.25885667 8.37340918 2.3874796 12 5 C14.4375 7.75 14.4375 7.75 16 10 C15.01 11.32 14.02 12.64 13 14 C12.22076172 13.27683594 12.22076172 13.27683594 11.42578125 12.5390625 C10.37970703 11.59160156 10.37970703 11.59160156 9.3125 10.625 C8.62800781 9.99851562 7.94351563 9.37203125 7.23828125 8.7265625 C3.12400067 5.55289406 -0.6967155 4.74481575 -5.8125 4.375 C-6.78832031 4.30023438 -7.76414062 4.22546875 -8.76953125 4.1484375 C-9.50558594 4.09945312 -10.24164063 4.05046875 -11 4 C-11 3.67 -11 3.34 -11 3 C-10.37351562 2.95101562 -9.74703125 2.90203125 -9.1015625 2.8515625 C-8.28429687 2.77679688 -7.46703125 2.70203125 -6.625 2.625 C-5.81289062 2.55539063 -5.00078125 2.48578125 -4.1640625 2.4140625 C-1.79665809 2.17107412 -1.79665809 2.17107412 0 0 Z " fill="#EBEBE8" transform="translate(133,82)"/>
<path d="M0 0 C6.39075249 -0.36174071 6.39075249 -0.36174071 9 1.1875 C10 3 10 3 9.75 5.5625 C9 8 9 8 8 10 C5.36 10 2.72 10 0 10 C0 6.7 0 3.4 0 0 Z " fill="#7E7E7E" transform="translate(217,169)"/>
<path d="M0 0 C2.5625 0.25 2.5625 0.25 5.5625 2.25 C5.2325 4.89 4.9025 7.53 4.5625 10.25 C1.1875 10.375 1.1875 10.375 -2.4375 10.25 C-4.4375 8.25 -4.4375 8.25 -4.6875 5.25 C-4.37752366 1.53028393 -3.8002894 0.38977327 0 0 Z " fill="#343432" transform="translate(81.4375,168.75)"/>
<path d="M0 0 C3 0.25 3 0.25 5 2.25 C5.38286803 5.98296326 5.14915785 7.02626323 3 10.25 C0 10.5625 0 10.5625 -3 10.25 C-5 8.25 -5 8.25 -5.25 5.25 C-4.90584825 1.120179 -4.129821 0.34415175 0 0 Z " fill="#3C3C3A" transform="translate(39,168.75)"/>
<path d="M0 0 C3 0.25 3 0.25 5 2.25 C5.3125 5.25 5.3125 5.25 5 8.25 C1.79191085 10.3887261 0.72301503 10.72730962 -3 10.25 C-5.14915785 7.02626323 -5.38286803 5.98296326 -5 2.25 C-3 0.25 -3 0.25 0 0 Z " fill="#3A3A38" transform="translate(187,168.75)"/>
<path d="M0 0 C3.0625 0.1875 3.0625 0.1875 5.0625 2.1875 C5.3125 5.1875 5.3125 5.1875 5.0625 8.1875 C3.0625 10.1875 3.0625 10.1875 0.625 10.5625 C-1.9375 10.1875 -1.9375 10.1875 -3.8125 8.5 C-5.22614911 5.59416572 -4.91920152 4.21441303 -3.9375 1.1875 C-2.9375 0.1875 -2.9375 0.1875 0 0 Z " fill="#353535" transform="translate(150.9375,168.8125)"/>
<path d="M0 0 C0.66 0.33 1.32 0.66 2 1 C1.34 1.66 0.68 2.32 0 3 C1.32 2.67 2.64 2.34 4 2 C4 2.99 4 3.98 4 5 C-3.57674047 7.87334627 -10.90361955 8.9061356 -19 8 C-19.66 7.34 -20.32 6.68 -21 6 C-17.04 6 -13.08 6 -9 6 C-9 5.67 -9 5.34 -9 5 C-11.97 4.505 -11.97 4.505 -15 4 C-15 3.67 -15 3.34 -15 3 C-14.33613281 2.95101562 -13.67226562 2.90203125 -12.98828125 2.8515625 C-8.26008988 2.45121929 -4.38156137 1.9169331 0 0 Z " fill="#CDCECA" transform="translate(137,132)"/>
<path d="M0 0 C0.66 5.61 1.32 11.22 2 17 C0.35 16.67 -1.3 16.34 -3 16 C-4.0219369 12.93418931 -4.1986365 10.65199926 -4.25 7.4375 C-4.27578125 6.46683594 -4.3015625 5.49617188 -4.328125 4.49609375 C-4.21984375 3.67238281 -4.1115625 2.84867187 -4 2 C-1 0 -1 0 0 0 Z " fill="#1B1C17" transform="translate(96,105)"/>
<path d="M0 0 C0.99 0 1.98 0 3 0 C4.6875 2 4.6875 2 6 4 C6.33 2.68 6.66 1.36 7 0 C7.66 0 8.32 0 9 0 C9 3.3 9 6.6 9 10 C6 9 6 9 4 6 C3.67 7.32 3.34 8.64 3 10 C2.01 10 1.02 10 0 10 C0 6.7 0 3.4 0 0 Z " fill="#545452" transform="translate(46,169)"/>
<path d="M0 0 C0.99 0 1.98 0 3 0 C3.66 1.65 4.32 3.3 5 5 C5.66 5 6.32 5 7 5 C7 3.35 7 1.7 7 0 C7.66 0 8.32 0 9 0 C9 3.3 9 6.6 9 10 C5 8 5 8 3 5 C2.67 6.65 2.34 8.3 2 10 C1.34 10 0.68 10 0 10 C0 6.7 0 3.4 0 0 Z " fill="#3A3B38" transform="translate(206,169)"/>
<path d="M0 0 C4 1 4 1 5.25 3.0625 C5.4975 3.701875 5.745 4.34125 6 5 C6.33 3.35 6.66 1.7 7 0 C7.66 0 8.32 0 9 0 C9 3.3 9 6.6 9 10 C5 8 5 8 3 5 C2.67 6.65 2.34 8.3 2 10 C1.34 10 0.68 10 0 10 C0 6.7 0 3.4 0 0 Z " fill="#373735" transform="translate(110,169)"/>
<path d="M0 0 C2.31 0 4.62 0 7 0 C7 0.66 7 1.32 7 2 C5.68 2 4.36 2 3 2 C3 2.66 3 3.32 3 4 C4.32 4 5.64 4 7 4 C7 4.66 7 5.32 7 6 C5.68 6 4.36 6 3 6 C3 6.66 3 7.32 3 8 C4.65 8 6.3 8 8 8 C8 8.66 8 9.32 8 10 C5.36 10 2.72 10 0 10 C0 6.7 0 3.4 0 0 Z " fill="#4D4D4B" transform="translate(67,169)"/>
<path d="M0 0 C1.65 1.65 3.3 3.3 5 5 C3.3790787 6.17232685 1.75313167 7.3377077 0.125 8.5 C-0.77992187 9.1496875 -1.68484375 9.799375 -2.6171875 10.46875 C-5 12 -5 12 -7 12 C-6.625 9.5625 -6.625 9.5625 -6 7 C-5.34 6.67 -4.68 6.34 -4 6 C-3.34 6.33 -2.68 6.66 -2 7 C-1.855625 6.21625 -1.71125 5.4325 -1.5625 4.625 C-1 2 -1 2 0 0 Z " fill="#24251F" transform="translate(95,140)"/>
<path d="M0 0 C4.29 0 8.58 0 13 0 C12.34 1.32 11.68 2.64 11 4 C7.9609375 4.609375 7.9609375 4.609375 4.375 4.75 C2.59222656 4.83507812 2.59222656 4.83507812 0.7734375 4.921875 C-0.14179687 4.94765625 -1.05703125 4.9734375 -2 5 C-1.34 3.35 -0.68 1.7 0 0 Z " fill="#EEEEEC" transform="translate(120,81)"/>
<path d="M0 0 C0.99 0 1.98 0 3 0 C3.66 0.66 4.32 1.32 5 2 C5.66 1.67 6.32 1.34 7 1 C9.00800456 1.28112064 11.01014051 1.61067967 13 2 C13 2.99 13 3.98 13 5 C12.34 5 11.68 5 11 5 C10.67 6.32 10.34 7.64 10 9 C6.04322598 7.32598022 3.15535787 4.86850715 0 2 C0 1.34 0 0.68 0 0 Z " fill="#282923" transform="translate(106,124)"/>
<path d="M0 0 C0.66 0 1.32 0 2 0 C5.05362463 5.37437934 5.05362463 5.37437934 4.8125 8.1875 C4 10 4 10 2 13 C1.54605448 15.27912938 1.54605448 15.27912938 1.375 17.6875 C1.30023438 18.49574219 1.22546875 19.30398437 1.1484375 20.13671875 C1.09945312 20.75160156 1.05046875 21.36648437 1 22 C0.67 22 0.34 22 0 22 C-0.33 16.39 -0.66 10.78 -1 5 C-0.34 5 0.32 5 1 5 C0.67 3.35 0.34 1.7 0 0 Z " fill="#40413E" transform="translate(155,93)"/>
<path d="M0 0 C0.99 0 1.98 0 3 0 C3 2.64 3 5.28 3 8 C4.32 8 5.64 8 7 8 C7 5.36 7 2.72 7 0 C7.66 0 8.32 0 9 0 C9.1953125 6.0546875 9.1953125 6.0546875 9 8 C7 10 7 10 4.5 10.25 C2 10 2 10 0 8 C-0.26991906 5.31160615 -0.08737357 2.70858064 0 0 Z " fill="#474745" transform="translate(194,169)"/>
<path d="M0 0 C1.4540625 0.0309375 1.4540625 0.0309375 2.9375 0.0625 C2.9375 0.7225 2.9375 1.3825 2.9375 2.0625 C1.9475 2.3925 0.9575 2.7225 -0.0625 3.0625 C1.2575 3.3925 2.5775 3.7225 3.9375 4.0625 C3.9375 5.7125 3.9375 7.3625 3.9375 9.0625 C1.6275 9.3925 -0.6825 9.7225 -3.0625 10.0625 C-3.3925 9.0725 -3.7225 8.0825 -4.0625 7.0625 C-1.0925 7.5575 -1.0925 7.5575 1.9375 8.0625 C1.9375 7.4025 1.9375 6.7425 1.9375 6.0625 C0.2875 5.7325 -1.3625 5.4025 -3.0625 5.0625 C-3.625 3.125 -3.625 3.125 -4.0625 1.0625 C-3.0625 0.0625 -3.0625 0.0625 0 0 Z " fill="#4F4F4D" transform="translate(176.0625,168.9375)"/>
<path d="M0 0 C2.31 0 4.62 0 7 0 C7 0.66 7 1.32 7 2 C5.35 2 3.7 2 2 2 C2 2.66 2 3.32 2 4 C3.65 4 5.3 4 7 4 C7 4.66 7 5.32 7 6 C5.35 6 3.7 6 2 6 C2 6.66 2 7.32 2 8 C3.65 8 5.3 8 7 8 C7 8.66 7 9.32 7 10 C4.69 10 2.38 10 0 10 C0 6.7 0 3.4 0 0 Z " fill="#40403E" transform="translate(101,169)"/>
<path d="M0 0 C6.93 0.33 13.86 0.66 21 1 C20.01 1.33 19.02 1.66 18 2 C18 2.66 18 3.32 18 4 C13.38 4 8.76 4 4 4 C4 3.34 4 2.68 4 2 C2.68 1.34 1.36 0.68 0 0 Z " fill="#23241F" transform="translate(115,139)"/>
<path d="M0 0 C2.31 0 4.62 0 7 0 C7 0.66 7 1.32 7 2 C5.35 2 3.7 2 2 2 C2 2.66 2 3.32 2 4 C3.32 4 4.64 4 6 4 C6 4.66 6 5.32 6 6 C4.68 6 3.36 6 2 6 C2 6.66 2 7.32 2 8 C3.65 8 5.3 8 7 8 C7 8.66 7 9.32 7 10 C4.69 10 2.38 10 0 10 C0 6.7 0 3.4 0 0 Z " fill="#3E3E3E" transform="translate(133,169)"/>
<path d="M0 0 C4.62 0.66 9.24 1.32 14 2 C14 2.99 14 3.98 14 5 C3.44191344 5.3690205 3.44191344 5.3690205 -1 3 C-0.67 2.01 -0.34 1.02 0 0 Z " fill="#FDFDFA" transform="translate(116,134)"/>
<path d="M0 0 C3.44165321 0.35299007 5.06872538 1.04581692 8 3 C7.34 3.66 6.68 4.32 6 5 C6 5.99 6 6.98 6 8 C5.236875 7.525625 4.47375 7.05125 3.6875 6.5625 C-0.89111612 4.2235443 -5.9528922 4.26043795 -11 4 C-11 3.67 -11 3.34 -11 3 C-10.37351562 2.95101562 -9.74703125 2.90203125 -9.1015625 2.8515625 C-8.28429687 2.77679688 -7.46703125 2.70203125 -6.625 2.625 C-5.81289062 2.55539063 -5.00078125 2.48578125 -4.1640625 2.4140625 C-1.79665809 2.17107412 -1.79665809 2.17107412 0 0 Z " fill="#D7D7D5" transform="translate(133,82)"/>
<path d="M0 0 C2.31 0 4.62 0 7 0 C7 0.99 7 1.98 7 3 C4.03 2.505 4.03 2.505 1 2 C1 3.98 1 5.96 1 8 C2.98 7.67 4.96 7.34 7 7 C6.67 7.99 6.34 8.98 6 10 C3.19637237 10.22732116 1.53813483 10.34081872 -0.875 8.8125 C-2 7 -2 7 -1.75 4.4375 C-1 2 -1 2 0 0 Z " fill="#474745" transform="translate(123,169)"/>
<path d="M0 0 C0.94875 0.04125 1.8975 0.0825 2.875 0.125 C3.205 1.115 3.535 2.105 3.875 3.125 C1.895 3.125 -0.085 3.125 -2.125 3.125 C-2.125 4.445 -2.125 5.765 -2.125 7.125 C-0.145 7.125 1.835 7.125 3.875 7.125 C3.875 7.785 3.875 8.445 3.875 9.125 C-2.875 10.25 -2.875 10.25 -5.125 9.125 C-5.25 5.75 -5.25 5.75 -5.125 2.125 C-3.125 0.125 -3.125 0.125 0 0 Z " fill="#464646" transform="translate(28.125,168.875)"/>
<path d="M0 0 C0 0.66 0 1.32 0 2 C-6.96085184 4.89464397 -13.07870004 5.38066228 -20.5625 5.1875 C-21.57119141 5.17396484 -22.57988281 5.16042969 -23.61914062 5.14648438 C-26.08000621 5.11149576 -28.53970335 5.06241158 -31 5 C-31 4.67 -31 4.34 -31 4 C-23.41 3.67 -15.82 3.34 -8 3 C-8 2.34 -8 1.68 -8 1 C-3.375 -1.125 -3.375 -1.125 0 0 Z " fill="#484845" transform="translate(209,150)"/>
<path d="M0 0 C2.9719385 1.12451727 5.33440687 2.22293791 8 4 C8.1875 6.625 8.1875 6.625 8 9 C3.04303419 7.76075855 0.88341534 6.21422242 -2 2 C-1.34 1.34 -0.68 0.68 0 0 Z " fill="#EBECE9" transform="translate(108,129)"/>
<path d="M0 0 C0.66 0 1.32 0 2 0 C2.33 2.31 2.66 4.62 3 7 C4.32 7.33 5.64 7.66 7 8 C7 5.36 7 2.72 7 0 C7.66 0 8.32 0 9 0 C9.1953125 6.0546875 9.1953125 6.0546875 9 8 C7 10 7 10 4.5 10.25 C2 10 2 10 0 8 C-0.26991906 5.31160615 -0.08737357 2.70858064 0 0 Z " fill="#353533" transform="translate(89,169)"/>
<path d="M0 0 C1.65 0 3.3 0 5 0 C5 0.66 5 1.32 5 2 C3.68 2 2.36 2 1 2 C1 2.66 1 3.32 1 4 C2.65 4.33 4.3 4.66 6 5 C5.67 6.65 5.34 8.3 5 10 C3.02 10 1.04 10 -1 10 C-0.67 9.01 -0.34 8.02 0 7 C1.98 7.495 1.98 7.495 4 8 C4 7.34 4 6.68 4 6 C2.35 5.67 0.7 5.34 -1 5 C-0.67 3.35 -0.34 1.7 0 0 Z " fill="#383837" transform="translate(59,169)"/>
<path d="M0 0 C0.375 2.75 0.375 2.75 0 6 C-3 8.375 -3 8.375 -6 10 C-6 9.01 -6 8.02 -6 7 C-6.99 6.67 -7.98 6.34 -9 6 C-7.8803014 4.99406757 -6.7540588 3.9954151 -5.625 3 C-4.68527344 2.1646875 -4.68527344 2.1646875 -3.7265625 1.3125 C-2 0 -2 0 0 0 Z " fill="#262624" transform="translate(109,81)"/>
<path d="M0 0 C0.33 0 0.66 0 1 0 C1.0809723 2.43816585 1.14046972 4.87364384 1.1875 7.3125 C1.22520508 8.34793945 1.22520508 8.34793945 1.26367188 9.40429688 C1.33834499 14.55674183 1.33834499 14.55674183 -0.51171875 16.98046875 C-1.00285156 17.31691406 -1.49398437 17.65335938 -2 18 C-2.66 17.67 -3.32 17.34 -4 17 C-3.855625 16.360625 -3.71125 15.72125 -3.5625 15.0625 C-2.95235284 11.74058766 -2.64875192 8.45039631 -2.37890625 5.0859375 C-2 3 -2 3 0 0 Z " fill="#43433F" transform="translate(160,104)"/>
<path d="M0 0 C0.99 0 1.98 0 3 0 C3 3.3 3 6.6 3 10 C3.66 10.33 4.32 10.66 5 11 C1.30458414 11.95024979 -1.30458414 11.95024979 -5 11 C-5 11.66 -5 12.32 -5 13 C-5.66 13 -6.32 13 -7 13 C-6.67 12.01 -6.34 11.02 -6 10 C-3.4375 8.8125 -3.4375 8.8125 -1 8 C-0.67 5.36 -0.34 2.72 0 0 Z " fill="#DFDFDD" transform="translate(203,169)"/>
<path d="M0 0 C2 3.75 2 3.75 2 6 C1.32582031 5.84660156 0.65164062 5.69320312 -0.04296875 5.53515625 C-3.46877952 4.91516143 -6.83893447 4.6647426 -10.3125 4.4375 C-11.56675781 4.35371094 -12.82101563 4.26992187 -14.11328125 4.18359375 C-15.54220703 4.09271484 -15.54220703 4.09271484 -17 4 C-12.39758213 0.93172142 -7.84748753 0.76906406 -2.5 1.4375 C-1.675 1.623125 -0.85 1.80875 0 2 C0 1.34 0 0.68 0 0 Z " fill="#4F4F4B" transform="translate(198,79)"/>
<path d="M0 0 C5.45454545 -0.36363636 5.45454545 -0.36363636 7.875 1.25 C9 3 9 3 9 7 C8.34 7 7.68 7 7 7 C6.67 5.68 6.34 4.36 6 3 C4.68 2.67 3.36 2.34 2 2 C2 3.98 2 5.96 2 8 C3.32 8.33 4.64 8.66 6 9 C4.02 9 2.04 9 0 9 C0 6.03 0 3.06 0 0 Z " fill="#353535" transform="translate(218,169)"/>
<path d="M0 0 C3.51760602 3.51760602 3.05502509 8.12842961 3.0625 12.875 C3.0466164 14.25006609 3.02749766 15.62511713 3 17 C2.67 17 2.34 17 2 17 C1.67 14.69 1.34 12.38 1 10 C0.01 10.33 -0.98 10.66 -2 11 C-1.85892253 9.54119891 -1.71197585 8.08296449 -1.5625 6.625 C-1.48128906 5.81289062 -1.40007812 5.00078125 -1.31640625 4.1640625 C-1 2 -1 2 0 0 Z " fill="#3C3D38" transform="translate(94,96)"/>
<path d="M0 0 C2.31 0 4.62 0 7 0 C7 0.66 7 1.32 7 2 C5.35 2 3.7 2 2 2 C2 2.66 2 3.32 2 4 C3.65 4 5.3 4 7 4 C7 4.66 7 5.32 7 6 C5.35 6 3.7 6 2 6 C2 7.32 2 8.64 2 10 C1.34 10 0.68 10 0 10 C0 6.7 0 3.4 0 0 Z " fill="#40403F" transform="translate(159,169)"/>
<path d="M0 0 C0.66 1.32 1.32 2.64 2 4 C-1.18382329 6.81645906 -3.75534029 7.72317437 -8 8 C-8.66 7.34 -9.32 6.68 -10 6 C-8.906875 5.566875 -7.81375 5.13375 -6.6875 4.6875 C-3.90591207 3.50504359 -1.93638061 2.39199957 0 0 Z " fill="#F3F3F1" transform="translate(145,128)"/>
<path d="M0 0 C2.31 1.98 4.62 3.96 7 6 C4.08235 7.9451 2.37462715 8.45276317 -1 9 C-0.67 6.03 -0.34 3.06 0 0 Z " fill="#E4E4E2" transform="translate(112,173)"/>
<path d="M0 0 C1.65 0.33 3.3 0.66 5 1 C4.67 2.65 4.34 4.3 4 6 C2.35 5.67 0.7 5.34 -1 5 C-0.67 3.35 -0.34 1.7 0 0 Z " fill="#E6E6E4" transform="translate(185,171)"/>
<path d="M0 0 C1.65 0.33 3.3 0.66 5 1 C4.67 2.65 4.34 4.3 4 6 C2.35 5.67 0.7 5.34 -1 5 C-0.67 3.35 -0.34 1.7 0 0 Z " fill="#E5E5E3" transform="translate(37,171)"/>
<path d="M0 0 C0.33 0 0.66 0 1 0 C2.23076923 6.4 2.23076923 6.4 1.0625 9.4375 C0.711875 9.953125 0.36125 10.46875 0 11 C0 10.01 0 9.02 0 8 C-0.99 8 -1.98 8 -3 8 C-3.33 8.99 -3.66 9.98 -4 11 C-3.49172849 6.62886504 -2.54826592 3.61004338 0 0 Z " fill="#2E2E2C" transform="translate(106,95)"/>
<path d="M0 0 C4.875 2.625 4.875 2.625 6 6 C3.69 7.65 1.38 9.3 -1 11 C-0.67 9.35 -0.34 7.7 0 6 C0.66 6 1.32 6 2 6 C1.34 4.02 0.68 2.04 0 0 Z " fill="#33332F" transform="translate(97,69)"/>
<path d="M0 0 C0.99 0.33 1.98 0.66 3 1 C3.6875 3.0625 3.6875 3.0625 4 5 C5.32 5.33 6.64 5.66 8 6 C8 6.66 8 7.32 8 8 C6.576875 8.2165625 6.576875 8.2165625 5.125 8.4375 C2.1065506 8.82935399 2.1065506 8.82935399 0 10 C0 6.7 0 3.4 0 0 Z " fill="#D4D5D2" transform="translate(55,169)"/>
<path d="M0 0 C2.97 0.495 2.97 0.495 6 1 C6 3.64 6 6.28 6 9 C4.68 8.67 3.36 8.34 2 8 C2 5.69 2 3.38 2 1 C1.34 0.67 0.68 0.34 0 0 Z " fill="#E9E9E7" transform="translate(89,168)"/>
<path d="M0 0 C1.0326802 2.78823655 1.04509293 3.8677274 0.0625 6.75 C-0.288125 7.4925 -0.63875 8.235 -1 9 C-0.34 9 0.32 9 1 9 C1 9.99 1 10.98 1 12 C-0.65 12.33 -2.3 12.66 -4 13 C-3.54177532 9.53058454 -3.10868317 6.32604951 -2 3 C-1.34 3 -0.68 3 0 3 C0 2.01 0 1.02 0 0 Z " fill="#262723" transform="translate(157,112)"/>
<path d="M0 0 C0 2.97 0 5.94 0 9 C-1.32 9.33 -2.64 9.66 -4 10 C-3.88637738 8.5199159 -3.75877092 7.04089926 -3.625 5.5625 C-3.55539063 4.73878906 -3.48578125 3.91507812 -3.4140625 3.06640625 C-3.27742187 2.38449219 -3.14078125 1.70257813 -3 1 C-1 0 -1 0 0 0 Z " fill="#FAFBF9" transform="translate(155,107)"/>
<path d="M0 0 C0.99 0.33 1.98 0.66 3 1 C2.67 1.66 2.34 2.32 2 3 C1.34 2.67 0.68 2.34 0 2 C-0.33 4.64 -0.66 7.28 -1 10 C-1.99 10 -2.98 10 -4 10 C-4.25 7.25 -4.25 7.25 -4 4 C-2 1.625 -2 1.625 0 0 Z " fill="#262624" transform="translate(111,90)"/>
<path d="M0 0 C1.32 1.32 2.64 2.64 4 4 C1.525 5.485 1.525 5.485 -1 7 C-1.66 6.34 -2.32 5.68 -3 5 C-3.99 5 -4.98 5 -6 5 C-4.02 3.35 -2.04 1.7 0 0 Z " fill="#E1E1DF" transform="translate(109,86)"/>
<path d="M0 0 C1.65 0 3.3 0 5 0 C5 1.65 5 3.3 5 5 C3.35 5.33 1.7 5.66 0 6 C0 4.02 0 2.04 0 0 Z " fill="#EDEDED" transform="translate(149,171)"/>
<path d="M0 0 C2.31 0 4.62 0 7 0 C7 0.99 7 1.98 7 3 C7.66 3 8.32 3 9 3 C9 4.65 9 6.3 9 8 C8.01 7.67 7.02 7.34 6 7 C6 6.34 6 5.68 6 5 C4.68 5 3.36 5 2 5 C2 4.34 2 3.68 2 3 C3.32 3 4.64 3 6 3 C6 2.34 6 1.68 6 1 C4.02 1 2.04 1 0 1 C0 0.67 0 0.34 0 0 Z " fill="#D1D1CF" transform="translate(68,168)"/>
<path d="M0 0 C0.66 0 1.32 0 2 0 C1.33501617 4.38889325 -0.18757677 7.9811485 -2 12 C-2.33 12 -2.66 12 -3 12 C-3.33 9.36 -3.66 6.72 -4 4 C-3.01 4 -2.02 4 -1 4 C-0.67 2.68 -0.34 1.36 0 0 Z " fill="#1B1B19" transform="translate(99,92)"/>
<path d="M0 0 C1 2 2 4 3 6 C2.67 6.66 2.34 7.32 2 8 C2.66 8 3.32 8 4 8 C3.67 9.32 3.34 10.64 3 12 C-0.57031889 8.16843827 -0.57031889 8.16843827 -2 6 C-1.85987011 3.47766203 -1.11999454 2.23998908 0 0 Z " fill="#2F2F2F" transform="translate(157,73)"/>
<path d="M0 0 C1.65 0 3.3 0 5 0 C5.33 1.32 5.66 2.64 6 4 C5.01 4 4.02 4 3 4 C3 4.66 3 5.32 3 6 C2.01 5.67 1.02 5.34 0 5 C0 3.35 0 1.7 0 0 Z " fill="#E1E1DF" transform="translate(79,171)"/>
<path d="M0 0 C0.33 1.32 0.66 2.64 1 4 C-0.98 4.33 -2.96 4.66 -5 5 C-5 4.01 -5 3.02 -5 2 C-5.66 1.34 -6.32 0.68 -7 0 C-3.86650268 -1.04449911 -3.01031744 -0.93423645 0 0 Z " fill="#353632" transform="translate(138,139)"/>
<path d="M0 0 C0.66 0.33 1.32 0.66 2 1 C0.71922406 4.84232783 -0.55374381 5.00882976 -4 7 C-6.05680792 8.60778647 -8.0201325 10.29639308 -10 12 C-8.43873668 8.16780823 -5.97133075 5.82638778 -3 3 C-2.401875 2.401875 -1.80375 1.80375 -1.1875 1.1875 C-0.795625 0.795625 -0.40375 0.40375 0 0 Z " fill="#DFE0DC" transform="translate(101,75)"/>
<path d="M0 0 C2.31 0.33 4.62 0.66 7 1 C6.01 2.32 5.02 3.64 4 5 C1.13275314 4.42655063 0.1385485 4.1385485 -2 2 C-1.34 2 -0.68 2 0 2 C0 1.34 0 0.68 0 0 Z " fill="#F6F6F4" transform="translate(33,178)"/>
<path d="M0 0 C2 3 2 3 2 7 C2.99 7.33 3.98 7.66 5 8 C1.98968256 8.93423645 1.13349732 9.04449911 -2 8 C-1.33333333 5.33333333 -0.66666667 2.66666667 0 0 Z " fill="#ECECEA" transform="translate(44,172)"/>
<path d="M0 0 C0.66 0 1.32 0 2 0 C2.66 1.98 3.32 3.96 4 6 C2.125 6.625 2.125 6.625 0 7 C-0.66 6.34 -1.32 5.68 -2 5 C-1.46428571 1.46428571 -1.46428571 1.46428571 0 0 Z " fill="#333332" transform="translate(85,126)"/>
<path d="M0 0 C2.5 1.4375 2.5 1.4375 5 4 C5.4451258 7.04256578 5.29359745 9.9465865 5 13 C4.67 13 4.34 13 4 13 C3.34 10.36 2.68 7.72 2 5 C1.34 5.66 0.68 6.32 0 7 C0 4.69 0 2.38 0 0 Z " fill="#1A1B15" transform="translate(145,99)"/>
<path d="M0 0 C1.32 0 2.64 0 4 0 C4 1.65 4 3.3 4 5 C2.68 5.33 1.36 5.66 0 6 C0 4.02 0 2.04 0 0 Z " fill="#EFEFEF" transform="translate(220,171)"/>
<path d="M0 0 C0 3.23861295 -0.6250851 5.09740189 -2 8 C-2.99 8.495 -2.99 8.495 -4 9 C-4.66 8.67 -5.32 8.34 -6 8 C-4.55746343 4.63408134 -2.66735273 2.48952921 0 0 Z " fill="#3B3B39" transform="translate(159,137)"/>
<path d="M0 0 C0.99 0.33 1.98 0.66 3 1 C2.67 2.65 2.34 4.3 2 6 C2.66 6 3.32 6 4 6 C3.67 6.66 3.34 7.32 3 8 C1.29115995 6.37660195 -0.37446717 4.70680947 -2 3 C-2 2.34 -2 1.68 -2 1 C-1.34 0.67 -0.68 0.34 0 0 Z " fill="#2F2F2E" transform="translate(106,133)"/>
<path d="M0 0 C0.66 0.66 1.32 1.32 2 2 C0.35 4.31 -1.3 6.62 -3 9 C-3.99 8.34 -4.98 7.68 -6 7 C-5.34 6.67 -4.68 6.34 -4 6 C-2.96986723 4.35178756 -1.96885372 2.68496298 -1 1 C-0.67 0.67 -0.34 0.34 0 0 Z " fill="#2E2E2B" transform="translate(215,82)"/>
<path d="M0 0 C1.98 0.66 3.96 1.32 6 2 C5.67 3.32 5.34 4.64 5 6 C2 6 2 6 0 5 C0 3.35 0 1.7 0 0 Z " fill="#181914" transform="translate(216,72)"/>
<path d="M0 0 C2.475 0.99 2.475 0.99 5 2 C0.25 6 0.25 6 -2 6 C-1.125 1.125 -1.125 1.125 0 0 Z " fill="#2D2E29" transform="translate(90,146)"/>
<path d="M0 0 C0.66 0 1.32 0 2 0 C2 0.66 2 1.32 2 2 C3.98 1.34 5.96 0.68 8 0 C6.75 2.5 6.75 2.5 5 5 C3.68 5 2.36 5 1 5 C0 1.125 0 1.125 0 0 Z " fill="#272823" transform="translate(216,138)"/>
<path d="M0 0 C0.33 0 0.66 0 1 0 C1 2.64 1 5.28 1 8 C-0.65 8 -2.3 8 -4 8 C-2.66666667 5.33333333 -1.33333333 2.66666667 0 0 Z " fill="#333430" transform="translate(164,129)"/>
<path d="M0 0 C1.485 0.99 1.485 0.99 3 2 C3.66 1.34 4.32 0.68 5 0 C4.67 2.31 4.34 4.62 4 7 C2.68 6.67 1.36 6.34 0 6 C0 4.02 0 2.04 0 0 Z " fill="#DBDCD8" transform="translate(97,113)"/>
<path d="M0 0 C0.33 0 0.66 0 1 0 C1 2.64 1 5.28 1 8 C0.34 8 -0.32 8 -1 8 C-1.33 8.99 -1.66 9.98 -2 11 C-2.28571429 3.57142857 -2.28571429 3.57142857 0 0 Z " fill="#252621" transform="translate(94,107)"/>
<path d="M0 0 C0.33 0.66 0.66 1.32 1 2 C0.38125 2.9075 -0.2375 3.815 -0.875 4.75 C-2.44389611 7.14948817 -3.80443821 9.40961612 -5 12 C-5.66 12 -6.32 12 -7 12 C-5.44298069 7.32894208 -2.91552627 3.91294315 0 0 Z " fill="#DFDFDE" transform="translate(219,80)"/>
<path d="M0 0 C0.99 0.495 0.99 0.495 2 1 C2.99 0.67 3.98 0.34 5 0 C5.33 0.99 5.66 1.98 6 3 C5.34 3 4.68 3 4 3 C4 4.98 4 6.96 4 9 C0 4.5 0 4.5 0 0 Z " fill="#262721" transform="translate(161,82)"/>
<path d="M0 0 C-0.99 0.33 -1.98 0.66 -3 1 C-3 1.66 -3 2.32 -3 3 C-6.63 2.67 -10.26 2.34 -14 2 C-14 1.67 -14 1.34 -14 1 C-9.27616037 0.34843591 -4.78025483 -0.11950637 0 0 Z " fill="#181914" transform="translate(136,140)"/>
<path d="M0 0 C3.16115776 1.36983503 3.9927092 1.9890638 6 5 C3.92446352 5.5534764 2.15634036 6 0 6 C0 4.02 0 2.04 0 0 Z " fill="#2C2D28" transform="translate(216,106)"/>
<path d="M0 0 C0.66 0.33 1.32 0.66 2 1 C1.67 1.99 1.34 2.98 1 4 C0.01 4 -0.98 4 -2 4 C-2.33 4.99 -2.66 5.98 -3 7 C-5.0625 8.1875 -5.0625 8.1875 -7 9 C-5.44499019 5.18315774 -2.96404505 2.80804268 0 0 Z " fill="#E6E6E4" transform="translate(59,86)"/>
<path d="M0 0 C1.65 0.33 3.3 0.66 5 1 C4.01 2.485 4.01 2.485 3 4 C3 4.99 3 5.98 3 7 C1.02 6.01 -0.96 5.02 -3 4 C-2.01 3.67 -1.02 3.34 0 3 C0 2.01 0 1.02 0 0 Z " fill="#DFDFDE" transform="translate(136,83)"/>
<path d="M0 0 C0.3403125 0.928125 0.3403125 0.928125 0.6875 1.875 C2.37929835 4.61410209 3.99244161 5.05024472 7 6 C7.33 5.34 7.66 4.68 8 4 C8 4.99 8 5.98 8 7 C4.625 7.1875 4.625 7.1875 1 7 C-1 4 -1 4 -0.625 1.8125 C-0.41875 1.214375 -0.2125 0.61625 0 0 Z " fill="#494947" transform="translate(78,172)"/>
<path d="M0 0 C2.97 0.495 2.97 0.495 6 1 C6 1.66 6 2.32 6 3 C4.02 3.33 2.04 3.66 0 4 C0 2.68 0 1.36 0 0 Z " fill="#F7F7F5" transform="translate(116,134)"/>
<path d="M0 0 C3 0 3 0 6 1 C5.34 2.65 4.68 4.3 4 6 C3.67 5.01 3.34 4.02 3 3 C1.68 3.33 0.36 3.66 -1 4 C-0.67 2.68 -0.34 1.36 0 0 Z " fill="#3A3B37" transform="translate(152,123)"/>
<path d="M0 0 C-0.66 1.65 -1.32 3.3 -2 5 C-3.65 4.67 -5.3 4.34 -7 4 C-3.375 0 -3.375 0 0 0 Z " fill="#30312D" transform="translate(199,117)"/>
<path d="M0 0 C0.33 0 0.66 0 1 0 C1 2.64 1 5.28 1 8 C-0.32 7.67 -1.64 7.34 -3 7 C-2.25 2.25 -2.25 2.25 0 0 Z " fill="#EDEDEB" transform="translate(200,169)"/>
<path d="M0 0 C1.9375 0.75 1.9375 0.75 4 2 C4.75 4.125 4.75 4.125 5 6 C4.34 5.67 3.68 5.34 3 5 C3 4.34 3 3.68 3 3 C2.34 3 1.68 3 1 3 C1 4.65 1 6.3 1 8 C0.67 8 0.34 8 0 8 C0 5.36 0 2.72 0 0 Z " fill="#20201D" transform="translate(47,170)"/>
<path d="M0 0 C1.65 0 3.3 0 5 0 C5 0.66 5 1.32 5 2 C3.68 2 2.36 2 1 2 C1.33 3.32 1.66 4.64 2 6 C1.01 5.67 0.02 5.34 -1 5 C-0.67 3.35 -0.34 1.7 0 0 Z " fill="#40403D" transform="translate(59,169)"/>
<path d="M0 0 C0.66 0 1.32 0 2 0 C1.67 1.98 1.34 3.96 1 6 C-0.65 6 -2.3 6 -4 6 C-2.84826645 3.53199953 -1.95216435 1.95216435 0 0 Z " fill="#1B1B19" transform="translate(149,129)"/>
<path d="M0 0 C2.0625 0.4375 2.0625 0.4375 4 1 C4 2.32 4 3.64 4 5 C3.34 5.66 2.68 6.32 2 7 C1.814375 6.071875 1.814375 6.071875 1.625 5.125 C1.12802644 2.80879168 1.12802644 2.80879168 -1 1 C-0.67 0.67 -0.34 0.34 0 0 Z " fill="#F8F8F7" transform="translate(156,83)"/>
<path d="M0 0 C0.66 0 1.32 0 2 0 C1.67 1.65 1.34 3.3 1 5 C-0.65 5 -2.3 5 -4 5 C-4.33 4.01 -4.66 3.02 -5 2 C-2.03 2.495 -2.03 2.495 1 3 C0.67 2.01 0.34 1.02 0 0 Z " fill="#3A3A38" transform="translate(177,174)"/>
<path d="M0 0 C1.98 0 3.96 0 6 0 C5.67 0.66 5.34 1.32 5 2 C3.68 2 2.36 2 1 2 C1 3.65 1 5.3 1 7 C-0.0625 5.1875 -0.0625 5.1875 -1 3 C-0.67 2.01 -0.34 1.02 0 0 Z " fill="#545454" transform="translate(148,169)"/>
<path d="M0 0 C0.99 0.33 1.98 0.66 3 1 C-0.465 3.97 -0.465 3.97 -4 7 C-3.04065919 3.16263678 -2.76390737 2.40339772 0 0 Z " fill="#EFEFED" transform="translate(157,136)"/>
<path d="M0 0 C2.475 0.99 2.475 0.99 5 2 C4.67 3.32 4.34 4.64 4 6 C3.34 6 2.68 6 2 6 C2 5.34 2 4.68 2 4 C1.34 4 0.68 4 0 4 C0 2.68 0 1.36 0 0 Z " fill="#191A16" transform="translate(108,135)"/>
<path d="M0 0 C2.475 0.99 2.475 0.99 5 2 C3.35 3.65 1.7 5.3 0 7 C0 4.69 0 2.38 0 0 Z " fill="#2B2B28" transform="translate(140,124)"/>
<path d="M0 0 C2.5 2.3125 2.5 2.3125 5 5 C5 5.99 5 6.98 5 8 C4.01 7.67 3.02 7.34 2 7 C0.8125 3.4375 0.8125 3.4375 0 0 Z " fill="#31322D" transform="translate(144,94)"/>
<path d="M0 0 C0.99 0.33 1.98 0.66 3 1 C3 2.65 3 4.3 3 6 C2.34 6 1.68 6 1 6 C0.67 6.66 0.34 7.32 0 8 C-0.98120464 4.94736336 -0.98120464 3.05263664 0 0 Z " fill="#2A2A28" transform="translate(25,90)"/>
<path d="M0 0 C2.4375 0.375 2.4375 0.375 5 1 C5.33 1.66 5.66 2.32 6 3 C4.02 3.99 4.02 3.99 2 5 C1.34 4.34 0.68 3.68 0 3 C0 2.01 0 1.02 0 0 Z " fill="#373834" transform="translate(211,66)"/>
<path d="M0 0 C1 2 2 4 3 6 C1.02 6.99 1.02 6.99 -1 8 C-1.66 7.34 -2.32 6.68 -3 6 C-2.34 6 -1.68 6 -1 6 C-0.67 4.02 -0.34 2.04 0 0 Z " fill="#D6D6D4" transform="translate(181,172)"/>
<path d="M0 0 C0 0.66 0 1.32 0 2 C-2.875 2.125 -2.875 2.125 -6 2 C-6.66 1.34 -7.32 0.68 -8 0 C-4.94736336 -0.98120464 -3.05263664 -0.98120464 0 0 Z " fill="#20211B" transform="translate(138,78)"/>
</svg>
