<?xml version="1.0" standalone="no"?>
<!DOCTYPE svg PUBLIC "-//W3C//DTD SVG 20010904//EN"
 "http://www.w3.org/TR/2001/REC-SVG-20010904/DTD/svg10.dtd">
<svg version="1.0" xmlns="http://www.w3.org/2000/svg"
 width="250.000000pt" height="250.000000pt" viewBox="0 0 250.000000 250.000000"
 preserveAspectRatio="xMidYMid meet">

<g transform="translate(0.000000,250.000000) scale(0.100000,-0.100000)"
fill="#000000" stroke="none">
<path d="M605 1880 c-251 -51 -414 -281 -376 -532 21 -140 108 -271 226 -338
148 -85 366 -78 507 15 l40 26 -44 47 c-25 26 -57 69 -72 94 l-28 48 -32 -25
c-99 -76 -256 -36 -315 80 -35 66 -36 180 -4 240 61 114 175 154 288 101 28
-12 56 -30 64 -39 12 -15 16 -13 41 25 31 48 50 70 100 112 l34 28 -29 25
c-100 82 -265 120 -400 93z"/>
<path d="M1791 1880 c-80 -12 -179 -66 -215 -117 l-29 -42 31 -35 c68 -78 112
-189 112 -283 l0 -42 88 -26 c48 -14 112 -33 142 -42 67 -19 90 -37 90 -74 0
-47 -36 -62 -128 -57 -69 4 -114 17 -218 64 -6 3 -17 -10 -25 -28 -7 -18 -35
-56 -62 -85 l-49 -52 24 -15 c124 -81 334 -117 471 -81 162 42 240 133 241
280 0 157 -88 229 -357 290 -89 20 -125 39 -133 72 -6 21 -2 31 20 50 46 40
159 25 270 -35 l55 -29 61 86 61 86 -23 19 c-91 74 -284 117 -427 96z"/>
<path d="M1150 1723 c-99 -34 -184 -119 -216 -215 -24 -74 -16 -197 18 -263
36 -70 111 -141 178 -167 82 -33 196 -31 271 4 79 36 133 89 171 166 28 56 33
76 33 141 0 109 -25 171 -100 247 -44 44 -75 67 -118 82 -69 26 -171 28 -237
5z m212 -51 c68 -25 132 -82 164 -149 57 -116 28 -265 -68 -348 -195 -166
-491 -33 -491 220 0 205 202 347 395 277z"/>
<path d="M1154 1616 c-194 -90 -182 -367 19 -451 88 -36 213 -4 275 71 90 108
77 257 -30 348 -72 62 -174 74 -264 32z m167 -165 c17 -18 29 -40 29 -56 0
-37 -50 -85 -89 -85 -76 0 -114 97 -57 146 38 33 80 31 117 -5z"/>
<path d="M242 798 c-7 -7 -12 -22 -12 -34 0 -44 53 -71 79 -40 10 12 6 14 -21
13 -29 -2 -33 1 -33 23 0 20 5 25 25 27 43 2 45 3 30 13 -21 13 -54 12 -68 -2z"/>
<path d="M351 796 c-21 -26 -10 -69 22 -80 23 -8 31 -6 49 12 18 18 20 26 12
49 -7 21 -17 29 -40 31 -18 2 -36 -3 -43 -12z m64 -36 c0 -18 -6 -26 -23 -28
-24 -4 -38 18 -28 44 3 9 15 14 28 12 17 -2 23 -10 23 -28z"/>
<path d="M467 803 c-11 -10 -8 -81 3 -88 6 -4 10 7 10 27 l1 33 28 -32 c15
-18 31 -33 34 -33 4 0 7 23 7 50 0 28 -4 50 -10 50 -5 0 -10 -12 -10 -27 l-1
-28 -24 28 c-26 29 -28 30 -38 20z"/>
<path d="M587 803 c-16 -15 -6 -43 18 -49 33 -8 32 -28 0 -21 -16 3 -24 0 -22
-7 2 -6 17 -11 33 -11 24 0 29 4 29 25 0 18 -6 26 -22 28 -31 5 -29 22 3 22
14 0 23 4 19 10 -7 11 -48 14 -58 3z"/>
<path d="M680 760 c0 -49 1 -50 30 -50 17 0 30 5 30 10 0 6 -9 10 -19 10 -11
0 -23 5 -26 10 -4 6 5 10 19 10 14 0 26 5 26 10 0 6 -9 10 -20 10 -11 0 -20 5
-20 10 0 6 9 10 20 10 11 0 20 5 20 10 0 6 -13 10 -30 10 -29 0 -30 -1 -30
-50z"/>
<path d="M783 798 c-33 -43 -12 -88 41 -88 29 0 34 4 39 28 11 52 -51 98 -80
60z m65 -30 c2 -11 -3 -18 -11 -18 -9 0 -17 -5 -19 -12 -7 -20 -28 2 -28 28 0
22 4 25 27 22 17 -2 29 -10 31 -20z"/>
<path d="M890 779 c0 -42 17 -69 43 -69 33 0 47 19 47 62 0 49 -18 50 -22 1
-2 -30 -7 -38 -23 -38 -16 0 -21 8 -23 38 -4 44 -22 50 -22 6z"/>
<path d="M1010 760 c0 -49 1 -50 29 -50 17 0 33 5 36 10 4 6 -5 10 -19 10 -14
0 -26 5 -26 10 0 6 9 10 19 10 11 0 23 5 26 10 4 6 -5 10 -19 10 -14 0 -26 5
-26 10 0 6 9 10 19 10 11 0 23 5 26 10 4 6 -8 10 -29 10 l-36 0 0 -50z"/>
<path d="M1100 760 c0 -27 5 -50 10 -50 6 0 10 15 10 33 l1 32 27 -33 c15 -18
30 -32 35 -32 4 0 7 23 7 50 0 28 -4 50 -10 50 -5 0 -10 -11 -10 -25 0 -14 -4
-25 -8 -25 -5 0 -15 11 -22 25 -23 42 -40 31 -40 -25z"/>
<path d="M1225 786 c-13 -19 -14 -29 -5 -45 17 -32 80 -41 80 -11 0 5 -13 7
-29 4 -20 -4 -30 -2 -34 10 -11 29 4 48 35 44 17 -3 27 0 25 6 -2 6 -15 12
-30 14 -19 2 -30 -4 -42 -22z"/>
<path d="M1330 760 c0 -49 1 -50 29 -50 17 0 33 5 36 10 4 6 -5 10 -19 10 -14
0 -26 5 -26 10 0 6 9 10 20 10 11 0 20 5 20 10 0 6 -9 10 -20 10 -11 0 -20 5
-20 10 0 6 9 10 20 10 11 0 20 5 20 10 0 6 -13 10 -30 10 -29 0 -30 -1 -30
-50z"/>
<path d="M1474 789 c-17 -19 -17 -23 -3 -47 27 -49 89 -37 89 17 0 51 -51 69
-86 30z m64 -26 c-3 -32 -41 -45 -51 -19 -10 26 3 46 30 46 21 0 24 -4 21 -27z"/>
<path d="M1590 759 c0 -31 4 -48 10 -44 6 3 10 13 10 21 0 8 9 14 19 14 11 0
23 5 26 10 4 6 -5 10 -19 10 -14 0 -26 5 -26 10 0 6 9 10 19 10 11 0 23 5 26
10 4 6 -8 10 -29 10 l-36 0 0 -51z"/>
<path d="M1729 794 c-11 -14 -10 -18 6 -30 10 -8 25 -14 32 -14 7 0 13 -5 13
-11 0 -7 -10 -9 -25 -7 -34 7 -43 -10 -10 -18 27 -7 55 9 55 31 0 7 -15 19
-32 26 l-33 13 28 3 c15 3 27 9 27 14 0 15 -47 10 -61 -7z"/>
<path d="M1832 798 c-28 -28 -2 -88 38 -88 22 0 50 26 50 46 0 46 -57 73 -88
42z m63 -38 c0 -18 -6 -26 -23 -28 -13 -2 -25 3 -28 12 -10 26 4 48 28 44 17
-2 23 -10 23 -28z"/>
<path d="M1948 805 c-3 -5 -5 -21 -3 -35 1 -14 3 -31 4 -37 2 -18 49 -27 66
-13 17 14 21 90 5 90 -5 0 -10 -18 -10 -40 0 -33 -3 -40 -20 -40 -19 0 -24 10
-32 65 -2 11 -6 16 -10 10z"/>
<path d="M2060 760 c0 -27 5 -50 10 -50 6 0 10 15 10 33 l1 32 27 -33 c15 -18
30 -32 35 -32 4 0 7 23 7 50 0 28 -4 50 -10 50 -5 0 -10 -11 -10 -25 0 -14 -3
-25 -6 -25 -3 0 -15 11 -26 25 -29 37 -38 31 -38 -25z"/>
<path d="M2180 760 c0 -47 2 -50 25 -50 23 0 65 31 65 48 0 23 -34 52 -61 52
-28 0 -29 -1 -29 -50z m64 14 c7 -19 -10 -44 -30 -44 -9 0 -14 11 -14 30 0 23
5 30 19 30 10 0 22 -7 25 -16z"/>
</g>
</svg>
