<?xml version="1.0" encoding="UTF-8"?>
<svg id="svg18" viewBox="0 0 60 60" xmlns="http://www.w3.org/2000/svg" xmlns:xlink="http://www.w3.org/1999/xlink" inkscape:version="1.0.2 (e86c870879, 2021-01-15, custom)" role="img" sodipodi:docname="Pitchfork logo symbol.svg" xmlns:inkscape="http://www.inkscape.org/namespaces/inkscape" xmlns:sodipodi="http://sodipodi.sourceforge.net/DTD/sodipodi-0.dtd">
 <defs id="defs3">
  <path id="a" d="m0 61h60v-60.001h-60z"/>
  <mask id="b" fill="#fff">
   <use id="use7" fill="#fff" fill-rule="evenodd" href="#a"/>
  </mask>
 </defs>
 <title id="title24">Pitchfork arrow symbol</title>
 <sodipodi:namedview bordercolor="#666666" borderopacity="1" gridtolerance="10" guidetolerance="10" inkscape:current-layer="svg18" inkscape:cx="30" inkscape:cy="30" inkscape:pageopacity="0" inkscape:pageshadow="2" inkscape:window-height="480" inkscape:window-maximized="0" inkscape:window-width="687" inkscape:window-x="0" inkscape:window-y="0" inkscape:zoom="14.166667" objecttolerance="10" pagecolor="#ffffff" showgrid="false"/>
 <g id="g16" fill-rule="evenodd">
  <path id="path5" d="m29.997 6.771c-6.056 0-12.103 2.345-16.65 7.013-8.938 9.185-8.74 23.93.442 32.868 4.357 4.242 10.113 6.578 16.207 6.578 6.329 0 12.244-2.492 16.654-7.018 8.935-9.183 8.738-23.926-.441-32.863-4.512-4.39-10.366-6.578-16.212-6.578m-.001 48.395c-6.602 0-12.836-2.53-17.557-7.125-9.946-9.684-10.161-25.656-.48-35.605 9.685-9.944 25.657-10.153 35.6-.473 9.944 9.682 10.158 25.65.478 35.599-4.778 4.903-11.185 7.605-18.041 7.605"/>
  <g id="g12" transform="translate(0 -1)">
   <path id="path10" d="m9.878 11.402c-10.796 11.1-10.557 28.918.532 39.718 11.09 10.797 28.904 10.559 39.708-.53 10.801-11.096 10.562-28.908-.53-39.709-5.262-5.125-12.22-7.947-19.592-7.947h-.004c-7.649 0-14.792 3.007-20.115 8.47zm20.115 49.599c-7.552 0-15.109-2.823-20.932-8.493-11.855-11.547-12.11-30.59-.57-42.456 5.69-5.837 13.325-9.054 21.501-9.054h.004c7.881 0 15.317 3.018 20.942 8.495 11.857 11.546 12.111 30.587.567 42.447-5.877 6.03-13.692 9.06-21.512 9.06z" mask="url(#b)"/>
  </g>
  <path id="path14" d="m19.193 13.82 2.876 2.875-12.135 12.137a18.51 18.51 0 0 0 -.039 1.436c.028 2.087.375 4.092.994 5.977l15.364-15.365 2.857 2.858-.034-9.92zm14.065 3.064 2.874 2.878-22.249 22.243c.582.78 1.216 1.517 1.902 2.198a19.9 19.9 0 0 0 2.295 1.977l22.238-22.236 2.856 2.858-.035-9.92-9.88.002m2.994 13.994 2.874 2.877-15.359 15.357a19.978 19.978 0 0 0 7.413.96l12.136-12.132 2.853 2.853-.033-9.918z"/>
 </g>
</svg>
