<svg width="300" height="300" version="1.1" xmlns="http://www.w3.org/2000/svg" desc="Created with imagetracer.js version 1.2.6" ><path fill="rgb(0,0,0)" stroke="rgb(0,0,0)" stroke-width="1" opacity="1" d="M 0 0 L 300 0 L 300 300 L 0 300 L 0 0 Z M 146 76 L 137 78 L 129 82 L 120 92 L 115 107 L 116 126 L 125 144 L 147 164 Q 157 172 160 188 L 158 197 Q 156 202 148 200 L 143 196 L 141 190 L 140 177 L 139 175 L 116 175 L 114 177 Q 113 201 125 214 L 138 222 L 147 224 Q 166 225 176 215 L 184 202 L 186 194 L 186 178 L 185 173 Q 182 161 175 154 L 159 138 Q 147 130 142 116 L 143 104 Q 145 99 153 100 L 157 108 L 157 116 L 158 117 Q 157 121 159 121 L 184 121 Q 185 101 177 90 Q 168 76 146 76 Z " /><path fill="rgb(251,251,251)" stroke="rgb(251,251,251)" stroke-width="1" opacity="1" d="M 142.5 77 L 144.5 77 L 149.5 78 L 152.5 77 L 155.5 78 L 157 77.5 Q 156.3 79.8 158.5 79 L 160.5 78 L 160.5 79 L 156.5 80 L 153.5 79 L 151.5 80 L 147.5 79 L 144.5 80 L 142.5 80 L 139 79.5 Q 140.3 76.8 141.5 79 L 143 78.5 L 142.5 77 Z " /><path fill="rgb(251,251,251)" stroke="rgb(251,251,251)" stroke-width="1" opacity="1" d="M 163.5 79 L 164.5 81 L 166.5 81 L 168 81.5 L 166 82.5 L 171.5 84 L 174 86.5 L 177 90.5 L 177 92.5 L 178 94.5 L 175.5 95 L 172.5 96 L 172.5 95 L 174 94.5 L 171 92.5 L 172.5 92 L 175.5 94 L 176 92 L 171 88.5 L 172 86.5 L 170.5 87 L 168.5 86 L 167 86.5 L 168 84.5 L 160 80.5 L 163.5 79 Z M 175 89 Q 173 92 176 91 L 175 89 Z " /><path fill="rgb(251,251,251)" stroke="rgb(251,251,251)" stroke-width="1" opacity="1" d="M 133.5 80 Q 135.8 79.3 135 81.5 L 136 84.5 L 135 86.5 L 135.5 88 L 133.5 88 L 130.5 86 L 128 86.5 L 126.5 89 Q 125.3 86.8 124 89.5 L 126.5 91 L 128 90.5 L 127 92.5 L 127.5 94 L 125.5 94 L 123.5 95 L 120 92.5 L 122 92 L 124 87 L 128 85.5 L 127.5 84 L 129 84.5 L 129.5 82 L 131 82.5 Q 130.3 80.3 132.5 81 L 133.5 80 Z M 134 81 L 132 83 L 134 83 L 134 81 Z M 132 83 L 130 85 L 133 86 L 135 86 L 135 84 L 132 83 Z M 125 91 L 123 92 L 124 94 L 126 93 Q 127 90 125 91 Z " /><path fill="rgb(251,251,251)" stroke="rgb(251,251,251)" stroke-width="1" opacity="1" d="M 160.5 82 L 163 83.5 L 161.5 88 L 160 85.5 L 161 83.5 L 160.5 82 Z " /><path fill="rgb(251,251,251)" stroke="rgb(251,251,251)" stroke-width="1" opacity="1" d="M 165.5 85 L 164.5 87 L 165.5 85 Z " /><path fill="rgb(251,251,251)" stroke="rgb(251,251,251)" stroke-width="1" opacity="1" d="M 169.5 88 L 170 90.5 L 169 90.5 L 169.5 88 Z " /><path fill="rgb(251,251,251)" stroke="rgb(251,251,251)" stroke-width="1" opacity="1" d="M 119.5 94 Q 121.8 93.3 121 95.5 L 118 97.5 Q 117.3 95.3 119.5 96 L 119.5 94 Z " /><path fill="rgb(251,251,251)" stroke="rgb(251,251,251)" stroke-width="1" opacity="1" d="M 145.5 96 L 150.5 97 Q 151.8 94.8 153 97.5 L 151 97.5 L 150.5 99 Q 149.3 96 145 97 L 143 100.5 L 143 104 Q 140.3 102.9 141 105.5 L 142 107.5 L 141 107.5 L 139.5 104 L 139 107.5 L 141 110.5 L 140 112.5 L 141.5 115 L 138.5 116 L 138 114.5 Q 140.3 113.2 139 108.5 L 138 108.5 L 137.5 110 L 137 107.5 L 139.5 100 L 140.5 104 L 145.5 96 Z " /><path fill="rgb(251,251,251)" stroke="rgb(251,251,251)" stroke-width="1" opacity="1" d="M 154.5 96 Q 157.1 95.2 156 98.5 L 159 100.5 L 157 96.5 L 158 96.5 L 158.5 98 L 160 97.5 L 160 99.5 L 159 102.5 L 159.5 104 L 158.5 103 L 156 104.5 L 158 101.5 L 154 98.5 L 154.5 96 Z " /><path fill="rgb(251,251,251)" stroke="rgb(251,251,251)" stroke-width="1" opacity="1" d="M 176.5 96 Q 180.3 94.8 179 98.5 L 181 98.5 L 181 102.5 L 183 106.5 L 180.5 112 L 179 111.5 L 181 111 L 181 108 Q 178.3 109.1 179 106.5 L 176 101.5 L 177 101.5 L 177.5 103 L 179 99.5 L 177 99.5 L 178 97 L 176.5 96 Z M 180 102 L 178 104 L 179 106 L 180 106 L 180 102 Z " /><path fill="rgb(251,251,251)" stroke="rgb(251,251,251)" stroke-width="1" opacity="1" d="M 146 98 L 148 98.5 L 146 99.5 L 146 98 Z " /><path fill="rgb(251,251,251)" stroke="rgb(251,251,251)" stroke-width="1" opacity="1" d="M 117.5 99 Q 120.8 97.9 120 100.5 L 116 103.5 L 118 100.5 L 117.5 99 Z " /><path fill="rgb(251,251,251)" stroke="rgb(251,251,251)" stroke-width="1" opacity="1" d="M 154.5 100 L 156 102.5 L 155 102.5 L 154.5 100 Z " /><path fill="rgb(251,251,251)" stroke="rgb(251,251,251)" stroke-width="1" opacity="1" d="M 119.5 103 L 119 104.5 L 118 116.5 L 120 122.5 L 119 122.5 L 117.5 120 L 116 120.5 L 117 115.5 L 117 113.5 L 116 108.5 L 119.5 103 Z " /><path fill="rgb(251,251,251)" stroke="rgb(251,251,251)" stroke-width="1" opacity="1" d="M 158 105 L 160 105.5 L 158.5 110 Q 155.8 108.8 158 107.5 L 158 105 Z " /><path fill="rgb(251,251,251)" stroke="rgb(251,251,251)" stroke-width="1" opacity="1" d="M 176.5 105 L 177 107.5 L 176 107.5 L 176.5 105 Z " /><path fill="rgb(251,251,251)" stroke="rgb(251,251,251)" stroke-width="1" opacity="1" d="M 136.5 111 Q 139.5 112.5 136.5 114 L 136.5 111 Z " /><path fill="rgb(251,251,251)" stroke="rgb(251,251,251)" stroke-width="1" opacity="1" d="M 159.5 111 L 160 113.5 L 159 115.5 L 160 117.5 L 158 116.5 L 159.5 111 Z " /><path fill="rgb(251,251,251)" stroke="rgb(251,251,251)" stroke-width="1" opacity="1" d="M 182 112 Q 185 110.8 184 114.5 L 182 113.5 L 182 112 Z " /><path fill="rgb(251,251,251)" stroke="rgb(251,251,251)" stroke-width="1" opacity="1" d="M 179.5 114 L 183 116.5 L 182.5 121 L 180.5 121 L 178.5 120 L 177 120.5 Q 175.9 117.2 178.5 118 L 182 119 L 179.5 114 Z " /><path fill="rgb(251,251,251)" stroke="rgb(251,251,251)" stroke-width="1" opacity="1" d="M 140 116 Q 142.7 114.9 142 117.5 L 142.5 120 Q 144.8 119.3 144 121.5 L 141 120.5 Q 139.8 124.3 143.5 123 L 146 124.5 L 145 127.5 L 146.5 129 L 147.5 127 Q 151.8 128.8 149 130.5 L 153.5 135 Q 155.3 132.3 157 136.5 L 159 140.5 L 154.5 144 Q 150.3 142.3 153 140.5 L 153.5 139 L 158 140.5 L 155.5 136 L 153 137.5 Q 155.3 136.3 152.5 135 L 151.5 136 L 149 134.5 L 148.5 136 L 147 133.5 L 147.5 132 L 145 133.5 L 146.5 136 L 144 133.5 L 144 131.5 Q 143.3 129.3 145.5 130 L 143.5 127 L 142 126.5 L 144 126 L 143.5 124 Q 142 126.5 140.5 123 Q 137.9 123.8 139 120.5 L 140 117.5 L 140 116 Z M 148 129 L 147 131 L 149 130 L 148 129 Z " /><path fill="rgb(251,251,251)" stroke="rgb(251,251,251)" stroke-width="1" opacity="1" d="M 137.5 118 L 138 119.5 L 136.5 122 L 136 120.5 L 137.5 118 Z " /><path fill="rgb(251,251,251)" stroke="rgb(251,251,251)" stroke-width="1" opacity="1" d="M 159.5 119 L 176 119.5 L 159.5 120 L 159.5 119 Z " /><path fill="rgb(251,251,251)" stroke="rgb(251,251,251)" stroke-width="1" opacity="1" d="M 116.5 122 L 120 124 L 119.5 126 L 116 124 L 116.5 122 Z " /><path fill="rgb(251,251,251)" stroke="rgb(251,251,251)" stroke-width="1" opacity="1" d="M 137.5 124 L 141 126.5 L 139.5 127 L 137.5 124 Z " /><path fill="rgb(251,251,251)" stroke="rgb(251,251,251)" stroke-width="1" opacity="1" d="M 117.5 126 L 120 127 L 120 129 Q 122.7 127.9 122 130.5 L 121 133 L 119 132.5 L 119.5 131 L 118 130.5 L 119 128 Q 115.8 129 117.5 126 Z " /><path fill="rgb(251,251,251)" stroke="rgb(251,251,251)" stroke-width="1" opacity="1" d="M 126.5 128 L 128 131.5 L 126 130.5 L 126.5 128 Z " /><path fill="rgb(251,251,251)" stroke="rgb(251,251,251)" stroke-width="1" opacity="1" d="M 123.5 131 L 127 133.5 L 125.5 134 L 123.5 131 Z " /><path fill="rgb(251,251,251)" stroke="rgb(251,251,251)" stroke-width="1" opacity="1" d="M 122.5 133 L 124 137 L 126.5 136 L 128 138.5 Q 126.2 142.8 124.5 140 L 123 139.5 L 124 137.5 L 121 136.5 L 120 134.5 L 122 134.5 L 122.5 133 Z M 125 138 L 125 140 L 127 139 L 125 138 Z " /><path fill="rgb(251,251,251)" stroke="rgb(251,251,251)" stroke-width="1" opacity="1" d="M 160.5 140 L 163.5 144 L 165 144.5 L 163 145.5 L 164.5 147 L 167 145.5 L 166 146.5 L 172.5 153 L 175 154.5 Q 172.7 155.8 175.5 157 L 178 158.5 L 178 160.5 L 176.5 164 L 177 162.5 L 173.5 158 L 170.5 160 L 168 159.5 L 168 157.5 L 168.5 156 L 170.5 159 L 171 157.5 L 169.5 154 Q 166.9 154.7 168 152 L 170 151.5 Q 168.3 148.3 166.5 152 L 162.5 150 L 160 151.5 L 162 148.5 L 160 148.5 L 161.5 146 L 160 145.5 L 163 144.5 L 159.5 143 L 158 143.5 L 161 141.5 L 160.5 140 Z M 166 147 Q 164 150 167 149 L 166 147 Z M 164 148 Q 162 151 165 150 L 164 148 Z M 172 153 L 171 155 L 174 155 L 172 153 Z " /><path fill="rgb(251,251,251)" stroke="rgb(251,251,251)" stroke-width="1" opacity="1" d="M 127.5 141 L 128 144 L 132 146.5 L 133 150 L 129 147.5 L 131 147.5 Q 131.8 145.3 129.5 146 L 127 145 Q 128.1 142.3 125.5 143 L 125.5 142 L 127.5 141 Z " /><path fill="rgb(251,251,251)" stroke="rgb(251,251,251)" stroke-width="1" opacity="1" d="M 132.5 144 L 134.5 144 L 136 144.5 L 134 145.5 L 135 147.5 L 133 146.5 L 132.5 144 Z " /><path fill="rgb(251,251,251)" stroke="rgb(251,251,251)" stroke-width="1" opacity="1" d="M 135.5 149 L 135 150.5 L 136.5 154 L 137.5 153 L 142.5 158 L 144 158.5 L 143.5 161 L 133 151.5 L 135.5 149 Z " /><path fill="rgb(251,251,251)" stroke="rgb(251,251,251)" stroke-width="1" opacity="1" d="M 142.5 152 L 143.5 154 L 142 153.5 L 141.5 155 L 141 153.5 L 142.5 152 Z " /><path fill="rgb(251,251,251)" stroke="rgb(251,251,251)" stroke-width="1" opacity="1" d="M 145.5 160 Q 150 162 146.5 164 L 145.5 160 Z " /><path fill="rgb(251,251,251)" stroke="rgb(251,251,251)" stroke-width="1" opacity="1" d="M 148.5 160 L 152 161 L 151 163.5 L 151.5 165 Q 150.3 162.8 149 165.5 L 151 166 L 152 168.5 L 148 165.5 L 150 161.5 L 148.5 160 Z " /><path fill="rgb(251,251,251)" stroke="rgb(251,251,251)" stroke-width="1" opacity="1" d="M 179.5 163 L 181 163.5 L 180.5 165 L 182 165.5 L 182 169.5 L 182.5 172 L 184 171.5 L 182 175.5 L 185 174.5 L 184 177.5 Q 187.2 180.8 186 188.5 L 185 188.5 L 184.5 181 L 184 194 L 181 192.5 L 183 192 L 181 174.5 L 182 172.5 L 180.5 167 L 178.5 168 L 179.5 165 L 177.5 166 L 179.5 163 Z " /><path fill="rgb(251,251,251)" stroke="rgb(251,251,251)" stroke-width="1" opacity="1" d="M 156.5 168 Q 158.3 171.1 160 169.5 Q 156.5 171 159 172.5 L 158 176 L 160 176.5 L 158 177.5 L 156 174.5 L 155.5 173 Q 157.8 173.8 157 171.5 Q 155 173.2 153 169.5 L 156.5 168 Z " /><path fill="rgb(251,251,251)" stroke="rgb(251,251,251)" stroke-width="1" opacity="1" d="M 115.5 176 Q 117.8 175.3 117 177.5 L 118 177.5 L 118.5 176 L 119 177.5 L 117.5 181 L 115.5 177 L 115 179.5 L 117.5 184 L 119.5 181 L 119 182.5 L 116 191 Q 119.3 189.7 118 194.5 L 123 205.5 Q 121.5 208.5 120 205.5 L 120.5 204 L 119 203.5 L 119 199.5 Q 119.5 195 116 194.5 L 116 192.5 L 115 189.5 L 116 185.5 Q 113.3 183.2 114 177.5 L 115.5 176 Z " /><path fill="rgb(251,251,251)" stroke="rgb(251,251,251)" stroke-width="1" opacity="1" d="M 136.5 176 L 138.5 176 Q 141.1 175.3 140 178 L 138 178.5 L 140 184.5 L 138 185.5 L 137 183.5 L 138 180.5 L 136.5 177 L 135.5 178 L 120.5 178 L 120.5 177 L 135.5 177 L 136.5 176 Z " /><path fill="rgb(251,251,251)" stroke="rgb(251,251,251)" stroke-width="1" opacity="1" d="M 158.5 179 Q 160.8 178.3 160 180.5 L 158.5 179 Z " /><path fill="rgb(251,251,251)" stroke="rgb(251,251,251)" stroke-width="1" opacity="1" d="M 161 184 L 163 184.5 L 163 192 L 161 191.5 L 161 184 Z " /><path fill="rgb(251,251,251)" stroke="rgb(251,251,251)" stroke-width="1" opacity="1" d="M 118.5 187 L 119 189.5 L 118 189.5 L 118.5 187 Z " /><path fill="rgb(251,251,251)" stroke="rgb(251,251,251)" stroke-width="1" opacity="1" d="M 138 187 L 141 188.5 L 141 190.5 L 142 193.5 L 141 193.5 L 140.5 192 L 139.5 195 L 139 192.5 Q 141.3 191.3 138.5 190 L 137 192.5 L 139 197.5 L 138 197.5 L 136 192.5 L 138 187 Z " /><path fill="rgb(251,251,251)" stroke="rgb(251,251,251)" stroke-width="1" opacity="1" d="M 141 195 L 143 195.5 L 142 197.5 L 145 199 Q 143.9 201.7 146.5 201 L 148 200.5 L 147.5 202 L 152.5 203 L 155 201.5 L 154.5 200 L 155.5 201 L 158 199.5 L 156.5 202 L 152.5 204 L 149.5 203 L 149.5 205 L 145.5 206 L 145.5 205 L 148 203.5 L 141 199 L 141 195 Z " /><path fill="rgb(251,251,251)" stroke="rgb(251,251,251)" stroke-width="1" opacity="1" d="M 136.5 198 L 137.5 200 L 136.5 198 Z " /><path fill="rgb(251,251,251)" stroke="rgb(251,251,251)" stroke-width="1" opacity="1" d="M 182.5 198 Q 184.8 197.3 184 199.5 Q 182.5 202.5 181 199.5 L 182.5 198 Z " /><path fill="rgb(251,251,251)" stroke="rgb(251,251,251)" stroke-width="1" opacity="1" d="M 122.5 200 L 124 202.5 L 122 201.5 L 122.5 200 Z " /><path fill="rgb(251,251,251)" stroke="rgb(251,251,251)" stroke-width="1" opacity="1" d="M 179.5 200 L 183 202.5 L 181 203 L 180 205.5 L 180.5 207 L 179 207.5 L 179.5 209 Q 176.9 208.2 178 211.5 Q 176 216 174 212.5 Q 176.3 211.3 173.5 210 L 170 208.5 L 171.5 208 L 173.5 209 L 175.5 209 L 178 207.5 L 176 204.5 Q 177.8 206.1 179.5 203 L 181 202.5 L 179.5 201 Q 177.8 204.8 176 201.5 Q 177.8 203.1 179.5 200 Z " /><path fill="rgb(251,251,251)" stroke="rgb(251,251,251)" stroke-width="1" opacity="1" d="M 159.5 202 L 158.5 204 L 157 203.5 L 159.5 202 Z " /><path fill="rgb(251,251,251)" stroke="rgb(251,251,251)" stroke-width="1" opacity="1" d="M 124.5 204 L 125 206.5 L 124 206.5 L 124.5 204 Z " /><path fill="rgb(251,251,251)" stroke="rgb(251,251,251)" stroke-width="1" opacity="1" d="M 127.5 205 L 127 206.5 L 128 208.5 L 126 210.5 L 127.5 213 L 125.5 213 L 123 210.5 L 124.5 208 Q 126.8 208.8 126 206.5 L 127.5 205 Z " /><path fill="rgb(251,251,251)" stroke="rgb(251,251,251)" stroke-width="1" opacity="1" d="M 152.5 205 Q 158 204.5 160 207.5 L 158.5 208 Q 157.1 205.4 152.5 206 L 152.5 205 Z " /><path fill="rgb(251,251,251)" stroke="rgb(251,251,251)" stroke-width="1" opacity="1" d="M 149.5 206 L 151 206.5 L 146.5 208 L 146.5 207 L 149.5 206 Z " /><path fill="rgb(251,251,251)" stroke="rgb(251,251,251)" stroke-width="1" opacity="1" d="M 169.5 210 L 168.5 212 L 169.5 210 Z " /><path fill="rgb(251,251,251)" stroke="rgb(251,251,251)" stroke-width="1" opacity="1" d="M 171 211 L 173 211.5 L 171 214.5 L 172.5 214 Q 174.8 213.3 174 215.5 L 172.5 217 L 170 215.5 L 171 217.5 L 165.5 221 L 160.5 219 L 159.5 222 L 157.5 223 L 157.5 221 L 153.5 220 L 153.5 221 L 156 222.5 L 153 223 L 152.5 221 L 149.5 223 L 145.5 222 L 143.5 223 L 143.5 222 L 145 221.5 L 141.5 220 L 139 221.5 L 140 219.5 L 137.5 219 L 137.5 221 Q 135.3 221.8 136 219.5 L 133.5 219 L 131 217.5 L 131.5 216 L 132 218 Q 134.7 219.1 134 216.5 L 136 217.5 L 136.5 219 L 139.5 218 L 143.5 219 L 145.5 218 L 145.5 219 L 144 219.5 L 150.5 221 L 154 218.5 L 150 217.5 L 153.5 217 L 156 218 Q 154.9 220.7 157.5 220 L 160 218.5 L 156 216.5 L 157.5 216 L 164.5 219 L 164.5 218 L 161 216.5 L 162.5 216 L 167.5 218 L 169 215.5 Q 166.8 214.3 169.5 213 Q 172.1 213.7 171 211 Z " /><path fill="rgb(251,251,251)" stroke="rgb(251,251,251)" stroke-width="1" opacity="1" d="M 146.5 216 L 149 216.5 L 146.5 217 L 146.5 216 Z " /><path fill="rgb(185,185,185)" stroke="rgb(185,185,185)" stroke-width="1" opacity="1" d="M 145.5 76 L 154 76.5 L 145.5 77 L 145.5 76 Z " /><path fill="rgb(185,185,185)" stroke="rgb(185,185,185)" stroke-width="1" opacity="1" d="M 139.5 77 L 142 77.5 L 139.5 78 L 139.5 77 Z " /><path fill="rgb(185,185,185)" stroke="rgb(185,185,185)" stroke-width="1" opacity="1" d="M 128.5 82 L 122.5 89 L 128.5 82 Z " /><path fill="rgb(185,185,185)" stroke="rgb(185,185,185)" stroke-width="1" opacity="1" d="M 169.5 82 L 170.5 84 L 169.5 82 Z " /><path fill="rgb(185,185,185)" stroke="rgb(185,185,185)" stroke-width="1" opacity="1" d="M 174.5 87 L 176.5 90 L 174.5 87 Z " /><path fill="rgb(185,185,185)" stroke="rgb(185,185,185)" stroke-width="1" opacity="1" d="M 121.5 90 L 120.5 92 L 121.5 90 Z " /><path fill="rgb(185,185,185)" stroke="rgb(185,185,185)" stroke-width="1" opacity="1" d="M 178.5 93 L 180 95.5 L 179 95.5 L 178.5 93 Z " /><path fill="rgb(185,185,185)" stroke="rgb(185,185,185)" stroke-width="1" opacity="1" d="M 147.5 99 L 152 99.5 L 147.5 100 L 147.5 99 Z " /><path fill="rgb(185,185,185)" stroke="rgb(185,185,185)" stroke-width="1" opacity="1" d="M 145.5 100 L 143.5 103 L 145.5 100 Z " /><path fill="rgb(185,185,185)" stroke="rgb(185,185,185)" stroke-width="1" opacity="1" d="M 153.5 100 L 154.5 102 L 153.5 100 Z " /><path fill="rgb(185,185,185)" stroke="rgb(185,185,185)" stroke-width="1" opacity="1" d="M 115.5 106 L 116 120.5 L 115 120.5 L 115.5 106 Z " /><path fill="rgb(185,185,185)" stroke="rgb(185,185,185)" stroke-width="1" opacity="1" d="M 141.5 108 L 142 113.5 L 141 113.5 L 141.5 108 Z " /><path fill="rgb(185,185,185)" stroke="rgb(185,185,185)" stroke-width="1" opacity="1" d="M 183.5 108 L 184 111.5 L 183 111.5 L 183.5 108 Z " /><path fill="rgb(185,185,185)" stroke="rgb(185,185,185)" stroke-width="1" opacity="1" d="M 157.5 109 L 158 115.5 L 157 115.5 L 157.5 109 Z " /><path fill="rgb(185,185,185)" stroke="rgb(185,185,185)" stroke-width="1" opacity="1" d="M 144.5 122 L 145.5 124 L 144.5 122 Z " /><path fill="rgb(185,185,185)" stroke="rgb(185,185,185)" stroke-width="1" opacity="1" d="M 146.5 125 L 147.5 127 L 146.5 125 Z " /><path fill="rgb(185,185,185)" stroke="rgb(185,185,185)" stroke-width="1" opacity="1" d="M 150.5 130 L 153.5 134 L 150.5 130 Z " /><path fill="rgb(185,185,185)" stroke="rgb(185,185,185)" stroke-width="1" opacity="1" d="M 121.5 137 L 122.5 139 L 121.5 137 Z " /><path fill="rgb(185,185,185)" stroke="rgb(185,185,185)" stroke-width="1" opacity="1" d="M 159.5 138 L 165.5 145 L 159.5 138 Z " /><path fill="rgb(185,185,185)" stroke="rgb(185,185,185)" stroke-width="1" opacity="1" d="M 123.5 140 L 124.5 142 L 123.5 140 Z " /><path fill="rgb(185,185,185)" stroke="rgb(185,185,185)" stroke-width="1" opacity="1" d="M 125.5 143 L 128.5 147 L 125.5 143 Z " /><path fill="rgb(185,185,185)" stroke="rgb(185,185,185)" stroke-width="1" opacity="1" d="M 167.5 146 L 174.5 154 L 167.5 146 Z " /><path fill="rgb(185,185,185)" stroke="rgb(185,185,185)" stroke-width="1" opacity="1" d="M 175.5 155 L 177.5 158 L 175.5 155 Z " /><path fill="rgb(185,185,185)" stroke="rgb(185,185,185)" stroke-width="1" opacity="1" d="M 141.5 159 L 145.5 164 L 141.5 159 Z " /><path fill="rgb(185,185,185)" stroke="rgb(185,185,185)" stroke-width="1" opacity="1" d="M 179.5 161 L 180.5 163 L 179.5 161 Z " /><path fill="rgb(185,185,185)" stroke="rgb(185,185,185)" stroke-width="1" opacity="1" d="M 151.5 169 L 154.5 173 L 151.5 169 Z " /><path fill="rgb(185,185,185)" stroke="rgb(185,185,185)" stroke-width="1" opacity="1" d="M 115.5 175 L 139 175.5 L 115.5 176 L 114.5 177 L 115.5 175 Z " /><path fill="rgb(185,185,185)" stroke="rgb(185,185,185)" stroke-width="1" opacity="1" d="M 156.5 176 L 158 178.5 L 157 178.5 L 156.5 176 Z " /><path fill="rgb(185,185,185)" stroke="rgb(185,185,185)" stroke-width="1" opacity="1" d="M 185.5 177 L 186 180.5 L 185 180.5 L 185.5 177 Z " /><path fill="rgb(185,185,185)" stroke="rgb(185,185,185)" stroke-width="1" opacity="1" d="M 114.5 182 L 115 187.5 L 114 187.5 L 114.5 182 Z " /><path fill="rgb(185,185,185)" stroke="rgb(185,185,185)" stroke-width="1" opacity="1" d="M 140.5 183 L 141 187.5 L 140 187.5 L 140.5 183 Z " /><path fill="rgb(185,185,185)" stroke="rgb(185,185,185)" stroke-width="1" opacity="1" d="M 159.5 183 L 160 186.5 L 159 186.5 L 159.5 183 Z " /><path fill="rgb(185,185,185)" stroke="rgb(185,185,185)" stroke-width="1" opacity="1" d="M 185.5 189 L 186 193.5 L 185 193.5 L 185.5 189 Z " /><path fill="rgb(185,185,185)" stroke="rgb(185,185,185)" stroke-width="1" opacity="1" d="M 159.5 190 L 160 192.5 L 159 192.5 L 159.5 190 Z " /><path fill="rgb(185,185,185)" stroke="rgb(185,185,185)" stroke-width="1" opacity="1" d="M 143.5 196 L 146.5 200 L 143.5 196 Z " /><path fill="rgb(185,185,185)" stroke="rgb(185,185,185)" stroke-width="1" opacity="1" d="M 157.5 197 L 155.5 200 L 157.5 197 Z " /><path fill="rgb(185,185,185)" stroke="rgb(185,185,185)" stroke-width="1" opacity="1" d="M 148.5 200 L 154 200.5 L 148.5 201 L 148.5 200 Z " /><path fill="rgb(185,185,185)" stroke="rgb(185,185,185)" stroke-width="1" opacity="1" d="M 120.5 206 L 121.5 208 L 120.5 206 Z " /><path fill="rgb(185,185,185)" stroke="rgb(185,185,185)" stroke-width="1" opacity="1" d="M 179.5 209 L 178.5 211 L 179.5 209 Z " /><path fill="rgb(185,185,185)" stroke="rgb(185,185,185)" stroke-width="1" opacity="1" d="M 125.5 213 L 127.5 216 L 125.5 213 Z " /><path fill="rgb(185,185,185)" stroke="rgb(185,185,185)" stroke-width="1" opacity="1" d="M 176.5 213 L 175.5 215 L 176.5 213 Z " /><path fill="rgb(185,185,185)" stroke="rgb(185,185,185)" stroke-width="1" opacity="1" d="M 130.5 217 L 131.5 219 L 130.5 217 Z " /><path fill="rgb(185,185,185)" stroke="rgb(185,185,185)" stroke-width="1" opacity="1" d="M 171.5 217 L 170.5 219 L 171.5 217 Z " /><path fill="rgb(185,185,185)" stroke="rgb(185,185,185)" stroke-width="1" opacity="1" d="M 140.5 222 L 143 222.5 L 140.5 223 L 140.5 222 Z " /><path fill="rgb(185,185,185)" stroke="rgb(185,185,185)" stroke-width="1" opacity="1" d="M 158.5 222 L 161 222.5 L 158.5 223 L 158.5 222 Z " /><path fill="rgb(185,185,185)" stroke="rgb(185,185,185)" stroke-width="1" opacity="1" d="M 146.5 223 L 155 223.5 L 146.5 224 L 146.5 223 Z " /><path fill="rgb(255,255,255)" stroke="rgb(255,255,255)" stroke-width="1" opacity="1" d="M 143.5 77 L 145.5 78 L 149.5 77 L 149.5 78 L 144 79.5 L 146.5 80 L 150.5 79 L 152.5 80 L 153.5 77 L 156 77.5 L 153 78.5 L 158.5 80 L 158.5 79 L 157 78.5 L 158.5 78 L 163 79.5 L 160 80.5 L 167.5 84 L 167.5 83 L 164 80.5 L 166.5 82 L 170 83.5 L 167 85.5 L 167.5 87 L 170.5 85 L 172 87.5 Q 169.3 89.2 173.5 91 L 174 89.5 L 173.5 88 Q 179.1 91.8 181 99.5 L 179 99.5 L 180 105.5 L 179 108 Q 182 106.8 181 110.5 L 182 110.5 L 181 105.5 L 182 105.5 L 183 111.5 L 182 113.5 Q 185 114.5 184 119.5 L 183 119.5 Q 183.8 115.8 181.5 115 L 180 115.5 L 182 119 L 177 118 L 176.5 121 L 159.5 121 L 158 117.5 L 160 117.5 L 159 114.5 L 160 111.5 L 159 111.5 L 158.5 113 L 158 110.5 L 160 105.5 L 158 105 L 157.5 108 L 154.5 100 L 151 99 Q 152.1 96.3 149.5 97 L 149.5 99 L 146 98 L 143.5 102 L 142.5 100 L 141 103.5 L 142 105.5 L 140.5 109 L 139 108.5 L 138 115.5 L 139.5 115 L 142 115.5 L 140 116 L 139 118.5 L 139 120.5 Q 138 124.3 141 123 L 142 119.5 L 141.5 118 Q 144.3 119.3 142 120.5 L 145 123.5 L 144 124.5 L 144.5 126 Q 145.8 123.7 147 126.5 Q 145.9 129.8 148.5 129 L 154 134.5 Q 151.8 135.8 154.5 137 L 156 136.5 L 156.5 138 Q 158.2 135.3 160 139.5 L 161 141.5 L 159 142.5 L 161.5 143 Q 162.8 140.8 164 143.5 L 163.5 145 L 165.5 145 L 173 152.5 L 172.5 154 L 176 156.5 L 175.5 158 L 179 160.5 L 180 162.5 L 178.5 165 L 180.5 164 L 178.5 168 L 181.5 166 L 181 167.5 L 181.5 172 L 182.5 169 L 185 175.5 L 182 176.5 L 183 192 L 181 192.5 L 184 194 L 184.5 181 L 185 194.5 L 184 198 L 181 199.5 L 182.5 202 L 181 202.5 L 182 204.5 L 179 205.5 L 180 207.5 Q 178.3 205.9 176.5 209 L 175 209.5 Q 179 211.5 175 213.5 L 174.5 215 L 172.5 214 L 171.5 217 L 169.5 218 L 167.5 218 L 165 218.5 Q 167.3 219.8 164.5 221 L 160.5 222 L 158.5 221 Q 156.5 225 154.5 221 L 151.5 223 L 152.5 220 L 147.5 221 L 140.5 219 L 138.5 221 L 133.5 218 Q 131.3 218.8 132 216.5 L 129.5 216 Q 126.9 216.7 128 214 L 126 214 L 126 212.5 L 125.5 208 L 122 209 Q 122.8 205.6 120 204.5 L 123 205.5 L 120.5 200 L 118 201 L 117 196.5 L 119 196.5 L 118 191 Q 115.3 192.1 116 189.5 L 115 185.5 Q 118.5 184 116 182.5 L 115 177.5 L 117 177.5 L 117.5 176 L 118.5 178 L 119 176 L 135.5 176 L 136.5 177 L 138 176.5 L 137 179.5 L 138 182.5 L 138 184.5 L 138.5 186 L 140 185.5 Q 140.7 188.1 138 187 L 138 189.5 L 142 194.5 L 141 199 L 143 198.5 L 142 196.5 L 147.5 201 L 154.5 201 L 160 196.5 L 159 194.5 L 160 193.5 L 160 182.5 L 160 180.5 Q 160.8 178.3 158.5 179 L 159.5 176 L 157.5 177 L 158 175.5 L 156.5 173 L 152 169.5 L 151 166 L 149 165.5 Q 152.8 163.8 149.5 162 L 147.5 165 L 147 163 L 144 161.5 L 143 159.5 L 143.5 158 L 139.5 155 Q 137.7 157.8 136 153.5 L 134.5 150 L 132.5 151 L 133 149.5 L 132.5 148 L 131.5 149 L 128 145.5 L 129.5 146 L 131 145.5 L 128 144 L 127.5 141 L 125.5 142 Q 122.7 140.8 125 139.5 L 127 136.5 L 125.5 137 Q 123.3 136.3 124 138.5 L 123 138.5 L 120 133.5 L 121 131.5 L 119 131.5 L 122 130.5 L 122 129 L 120 129 Q 121.1 126.3 118.5 127 L 117 124.5 L 118 123.5 L 116 119.5 L 116.5 115 Q 115.9 119.6 118.5 121 L 119 117.5 L 118 116.5 L 118 108.5 L 119 104.5 L 118 104.5 L 116.5 108 L 116 104.5 Q 119.5 103 117 101.5 L 117.5 100 L 118.5 102 L 120 99 L 118 98.5 Q 121.1 96.8 119.5 95 L 121 95.5 L 120 93.5 L 122 92.5 L 121.5 91 L 123.5 92 L 122 89.5 L 123.5 88 Q 124.8 90.2 126 87.5 Q 123.7 86.3 126.5 85 Q 128.8 85.8 128 83.5 L 129 83.5 L 129.5 85 L 130.5 82 L 131.5 83 L 134 81.5 Q 134.8 83.8 132.5 83 L 132.5 84 L 136 82.5 L 135 79 L 139.5 78 L 139.5 80 L 143 79.5 L 141 78.5 L 143.5 77 Z M 161 82 L 161 84 L 160 86 L 162 88 L 163 84 L 161 82 Z M 127 86 L 128 88 Q 129 85 127 86 Z M 132 86 L 133 88 L 134 88 L 132 86 Z M 170 88 L 169 91 L 170 91 L 170 88 Z M 174 93 L 175 95 L 176 95 L 174 93 Z M 146 96 L 146 97 L 149 97 L 146 96 Z M 155 96 L 154 99 L 156 99 Q 157 95 155 96 Z M 177 96 L 177 97 Q 179 96 178 99 L 179 99 Q 180 95 177 96 Z M 145 97 L 143 100 L 145 99 L 145 97 Z M 140 100 L 139 104 L 140 104 L 140 100 Z M 139 104 L 137 108 L 138 110 L 139 108 L 139 104 Z M 177 105 L 176 108 L 177 108 L 177 105 Z M 160 119 L 160 120 L 176 120 L 160 119 Z M 142 123 Q 142 127 144 124 L 142 123 Z M 119 124 L 120 126 Q 121 123 119 124 Z M 127 128 L 126 131 L 127 131 L 127 128 Z M 144 130 L 144 132 L 146 131 L 144 130 Z M 124 131 L 126 134 L 127 134 L 124 131 Z M 149 132 L 147 134 L 149 136 L 149 135 Q 151 133 149 132 Z M 123 133 L 123 137 L 124 137 L 123 133 Z M 154 139 Q 152 142 155 141 L 154 139 Z M 154 142 L 155 144 L 156 144 L 154 142 Z M 134 145 L 133 147 L 135 148 L 134 145 Z M 161 145 L 165 149 L 165 148 Q 165 144 161 145 Z M 168 152 L 168 154 L 171 155 L 171 154 L 168 152 Z M 172 155 Q 172 159 174 156 L 172 155 Z M 172 157 Q 170 160 173 159 L 172 157 Z M 176 159 L 178 163 L 178 161 L 176 159 Z M 151 161 L 152 163 Q 153 160 151 161 Z M 154 169 Q 154 173 156 170 L 154 169 Z M 158 171 L 157 173 L 159 174 L 158 171 Z M 121 177 L 121 178 L 136 178 L 121 177 Z M 118 178 L 117 181 L 118 181 L 118 178 Z M 119 182 L 116 186 L 117 189 L 119 185 L 119 182 Z M 161 184 L 161 192 L 163 192 L 163 185 L 161 184 Z M 119 187 L 118 190 L 119 190 L 119 187 Z M 140 192 L 139 195 L 140 195 L 140 192 Z M 138 193 L 137 196 L 138 196 L 138 193 Z M 120 197 L 119 200 L 120 200 L 120 197 Z M 144 199 L 145 201 Q 146 198 144 199 Z M 158 199 L 156 202 L 158 201 L 158 199 Z M 123 200 L 122 202 L 124 203 L 123 200 Z M 146 201 L 148 203 L 147 205 L 150 205 L 149 204 L 152 203 L 146 201 Z M 154 202 L 153 204 L 155 203 L 154 202 Z M 180 203 L 181 205 Q 182 202 180 203 Z M 125 204 L 124 207 L 125 207 L 125 204 Z M 153 205 L 153 206 L 156 206 L 153 205 Z M 147 207 L 147 208 L 149 208 L 147 207 Z M 171 211 L 171 213 L 173 212 L 171 211 Z M 170 213 L 171 215 Q 172 212 170 213 Z M 135 216 L 134 218 L 136 219 L 135 216 Z M 147 216 L 147 217 L 149 217 L 147 216 Z M 157 216 L 158 218 L 160 218 L 157 216 Z M 151 217 L 151 218 L 154 218 L 151 217 Z M 138 218 L 138 219 L 140 219 L 138 218 Z M 155 218 L 153 220 L 156 220 Q 157 217 155 218 Z M 163 219 L 163 220 L 165 220 L 163 219 Z " /><path fill="rgb(255,255,255)" stroke="rgb(255,255,255)" stroke-width="1" opacity="1" d="M 116.5 109 L 117 113.5 L 116 113.5 L 116.5 109 Z " /><path fill="rgb(255,255,255)" stroke="rgb(255,255,255)" stroke-width="1" opacity="1" d="M 138.5 178 Q 141.3 177.4 140 183.5 L 139 183.5 L 138.5 178 Z " /><path fill="rgb(255,255,255)" stroke="rgb(255,255,255)" stroke-width="1" opacity="1" d="M 139.5 188 L 140.5 190 L 139.5 188 Z " /><path fill="rgb(255,255,255)" stroke="rgb(255,255,255)" stroke-width="1" opacity="1" d="M 141.5 220 L 149 222.5 L 145.5 223 L 140 221.5 L 141.5 220 Z " /></svg>